<svg xmlns="http://www.w3.org/2000/svg" xmlns:xlink="http://www.w3.org/1999/xlink" width="1920" height="1080" viewBox="0 0 1920 1080">
  <defs>
    <clipPath id="clip-path">
      <rect id="Rectangle_317" data-name="Rectangle 317" width="1920" height="1080" fill="none"/>
    </clipPath>
  </defs>
  <g id="Group_1173" data-name="Group 1173" transform="translate(0 -1761)">
    <rect id="Rectangle_289" data-name="Rectangle 289" width="1920" height="1080" transform="translate(0 1761)" fill="#f28e83"/>
    <g id="Group_1092" data-name="Group 1092" transform="translate(0 1761)" opacity="0.318" style="mix-blend-mode: lighten;isolation: isolate">
      <g id="Group_1051" data-name="Group 1051" clip-path="url(#clip-path)">
        <path id="Path_1599" data-name="Path 1599" d="M1059.763,813.013a1.56,1.56,0,0,1,.372-2.244,1.784,1.784,0,0,1,2.393.385,1.529,1.529,0,0,1-.375,2.215,1.656,1.656,0,0,1-.99.317,1.768,1.768,0,0,1-1.4-.673m19.728-17.6a1.523,1.523,0,0,1-.338-2.241,1.8,1.8,0,0,1,2.39-.324,1.556,1.556,0,0,1,.338,2.244,1.774,1.774,0,0,1-2.39.32m13.283-22.309a1.541,1.541,0,0,1-1.062-2.019,1.762,1.762,0,0,1,2.188-.99,1.621,1.621,0,0,1,1.058,2.048,1.777,1.777,0,0,1-1.639,1.058,1.623,1.623,0,0,1-.546-.1m5.291-25.034a1.605,1.605,0,1,1,.031-3.205,1.688,1.688,0,0,1,1.707,1.635,1.653,1.653,0,0,1-1.707,1.571Zm-6.08-26.216a1.567,1.567,0,0,1,1.062-2.054,1.72,1.72,0,0,1,2.151,1,1.582,1.582,0,0,1-1.062,2.048,2.78,2.78,0,0,1-.543.067,1.7,1.7,0,0,1-1.608-1.058m-12.559-22.12h0a1.562,1.562,0,0,1,.338-2.244,1.769,1.769,0,0,1,2.393.324,1.528,1.528,0,0,1-.341,2.241,1.688,1.688,0,0,1-1.024.321,1.766,1.766,0,0,1-1.366-.641m-19.018-17.6a1.56,1.56,0,0,1-.372-2.241,1.8,1.8,0,0,1,2.386-.356,1.559,1.559,0,0,1,.379,2.247,1.768,1.768,0,0,1-1.365.638,1.876,1.876,0,0,1-1.028-.289M928.331,671.373a1.646,1.646,0,0,1-1.536-1.766,1.668,1.668,0,0,1,1.874-1.439,1.618,1.618,0,0,1,1.505,1.76,1.638,1.638,0,0,1-1.673,1.446Zm25.74-1.574a1.6,1.6,0,0,1,1.536-1.731,1.661,1.661,0,0,1,1.84,1.474,1.634,1.634,0,0,1-1.533,1.731h-.137a1.67,1.67,0,0,1-1.707-1.474m82.546,1.122a1.559,1.559,0,0,1-1.127-1.987,1.726,1.726,0,0,1,2.116-1.055,1.58,1.58,0,0,1,1.161,1.984,1.73,1.73,0,0,1-1.639,1.154,1.355,1.355,0,0,1-.512-.1m-55.406-3.75a1.645,1.645,0,0,1,1.533-1.731,1.677,1.677,0,0,1,1.881,1.414,1.623,1.623,0,0,1-1.536,1.76h-.171a1.7,1.7,0,0,1-1.707-1.442m28.949.128a1.659,1.659,0,0,1-1.676-1.635,1.629,1.629,0,0,1,1.744-1.571,1.6,1.6,0,1,1-.038,3.205ZM901.328,665.44a1.609,1.609,0,0,1-.956-2.08,1.72,1.72,0,0,1,2.219-.9,1.546,1.546,0,0,1,.956,2.087,1.679,1.679,0,0,1-1.574.99,2.141,2.141,0,0,1-.645-.1m-23.18-14.424h-.034a1.575,1.575,0,0,1,.1-2.276,1.771,1.771,0,0,1,2.424.1,1.546,1.546,0,0,1-.1,2.276,1.983,1.983,0,0,1-1.161.417,1.742,1.742,0,0,1-1.229-.513m-12.256-23.527a1.611,1.611,0,0,1,1.362-1.859,1.7,1.7,0,0,1,1.98,1.314,1.6,1.6,0,0,1-1.362,1.859h-.307a1.661,1.661,0,0,1-1.673-1.314m2.56-24.168a1.608,1.608,0,0,1-1.335-1.891,1.744,1.744,0,0,1,2.052-1.247,1.621,1.621,0,0,1,1.3,1.92,1.693,1.693,0,0,1-1.673,1.25,1.219,1.219,0,0,1-.341-.032m7.3-24.713a1.584,1.584,0,0,1-1.123-1.987,1.752,1.752,0,0,1,2.147-1.058,1.576,1.576,0,0,1,1.127,2.019,1.742,1.742,0,0,1-1.635,1.125,1.4,1.4,0,0,1-.516-.1m7.412-24.646a1.633,1.633,0,0,1-1.366-1.894,1.715,1.715,0,0,1,2.014-1.279,1.6,1.6,0,0,1-.345,3.173Zm-.307-26.9h0a1.609,1.609,0,0,1,1.465-1.792,1.723,1.723,0,0,1,1.915,1.407,1.612,1.612,0,0,1-1.468,1.766.718.718,0,0,1-.239.032,1.663,1.663,0,0,1-1.673-1.414m-430.175-11.6a1.609,1.609,0,1,1,.171-3.205,1.624,1.624,0,0,1,1.6,1.67,1.649,1.649,0,0,1-1.707,1.535Zm25.668-2.148a1.7,1.7,0,1,1,1.843,1.442h-.137a1.677,1.677,0,0,1-1.707-1.442m-53.013-.894a1.6,1.6,0,0,1-1.331-1.894,1.654,1.654,0,0,1,1.98-1.25,1.609,1.609,0,0,1,1.366,1.859,1.716,1.716,0,0,1-1.673,1.317c-.137,0-.242-.032-.341-.032m79.986-3.016a1.607,1.607,0,0,1,1.3-1.92,1.712,1.712,0,0,1,2.045,1.218,1.655,1.655,0,0,1-1.328,1.92,1.4,1.4,0,0,1-.379.032,1.684,1.684,0,0,1-1.635-1.25m-106.48-4.164a1.571,1.571,0,0,1-.952-2.087,1.715,1.715,0,0,1,2.185-.93,1.6,1.6,0,0,1,.99,2.087,1.732,1.732,0,0,1-1.6,1.022,2.191,2.191,0,0,1-.618-.093M531.711,502.9a1.638,1.638,0,0,1,1.127-2.019,1.75,1.75,0,0,1,2.151,1.058,1.617,1.617,0,0,1-1.123,2.019,2.838,2.838,0,0,1-.512.067,1.758,1.758,0,0,1-1.642-1.125m343.672.128h-.038a1.574,1.574,0,0,1,.854-2.115,1.771,1.771,0,0,1,2.287.769h-.031a1.576,1.576,0,0,1-.823,2.148,1.863,1.863,0,0,1-.717.128,1.68,1.68,0,0,1-1.533-.93m-317.826-8.459a1.543,1.543,0,0,1,.99-2.055,1.7,1.7,0,0,1,2.181.93,1.559,1.559,0,0,1-.99,2.055,1.753,1.753,0,0,1-.58.1,1.66,1.66,0,0,1-1.6-1.026M374.3,493.379a1.523,1.523,0,0,1-.481-2.212,1.778,1.778,0,0,1,2.359-.478,1.565,1.565,0,0,1,.474,2.244,1.815,1.815,0,0,1-1.434.7,1.893,1.893,0,0,1-.918-.256m208.615-8.331a1.552,1.552,0,0,1,.925-2.087,1.719,1.719,0,0,1,2.219.865,1.546,1.546,0,0,1-.922,2.083,1.518,1.518,0,0,1-.652.128,1.712,1.712,0,0,1-1.57-.99m278.089-3.241a1.533,1.533,0,0,1,.242-2.276,1.8,1.8,0,0,1,2.39.224A1.5,1.5,0,0,1,863.4,482a1.663,1.663,0,0,1-1.089.385,1.743,1.743,0,0,1-1.3-.58M353.24,476.551a1.522,1.522,0,0,1,.1-2.276,1.77,1.77,0,0,1,2.393.128,1.49,1.49,0,0,1-.1,2.247,1.669,1.669,0,0,1-1.164.417,1.624,1.624,0,0,1-1.226-.516m254.807-1.571a1.56,1.56,0,0,1,.884-2.115,1.728,1.728,0,0,1,2.222.869,1.524,1.524,0,0,1-.888,2.08,1.615,1.615,0,0,1-.683.128,1.656,1.656,0,0,1-1.536-.962m25.126-10.033a1.568,1.568,0,0,1,.922-2.115,1.757,1.757,0,0,1,2.219.9,1.578,1.578,0,0,1-.925,2.087,2.4,2.4,0,0,1-.645.128,1.7,1.7,0,0,1-1.57-1m208.516-.7a1.528,1.528,0,0,1-.311-2.247,1.771,1.771,0,0,1,2.39-.285,1.521,1.521,0,0,1,.307,2.244,1.761,1.761,0,0,1-1.362.638,1.8,1.8,0,0,1-1.024-.349m-183.12-8.686a1.565,1.565,0,0,1,1.024-2.055,1.745,1.745,0,0,1,2.188.93,1.612,1.612,0,0,1-1.024,2.083,1.838,1.838,0,0,1-.58.1,1.7,1.7,0,0,1-1.608-1.058m-321.308-.228a1.583,1.583,0,0,1,.717-2.176,1.781,1.781,0,0,1,2.325.673,1.548,1.548,0,0,1-.717,2.144,1.631,1.631,0,0,1-.785.192,1.755,1.755,0,0,1-1.54-.833m481.59-4.452a1.576,1.576,0,0,1-.823-2.148,1.761,1.761,0,0,1,2.287-.74,1.562,1.562,0,0,1,.789,2.148,1.644,1.644,0,0,1-1.506.9,1.5,1.5,0,0,1-.748-.157m-134.371-3.433a1.575,1.575,0,0,1,1.164-1.987,1.723,1.723,0,0,1,2.113,1.09,1.6,1.6,0,0,1-1.161,1.987,2.385,2.385,0,0,1-.475.067,1.679,1.679,0,0,1-1.642-1.157m26.495-6.25a1.579,1.579,0,0,1,1.331-1.891,1.733,1.733,0,0,1,2.014,1.25,1.625,1.625,0,0,1-1.366,1.894,1.016,1.016,0,0,1-.311.032,1.664,1.664,0,0,1-1.669-1.285m82.58,1.125a1.576,1.576,0,0,1-1.267-1.926,1.71,1.71,0,0,1,2.052-1.186,1.6,1.6,0,0,1,1.263,1.926,1.73,1.73,0,0,1-1.673,1.247,1.424,1.424,0,0,1-.376-.061m-55.577-4.907a1.6,1.6,0,0,1,1.57-1.7,1.629,1.629,0,0,1,1.806,1.474,1.611,1.611,0,0,1-1.567,1.7c-.034.032-.068.032-.14.032a1.661,1.661,0,0,1-1.669-1.506m28.881,1.218a1.648,1.648,0,0,1-1.608-1.7,1.713,1.713,0,1,1,1.707,1.7Zm-439.733-7.4a1.588,1.588,0,0,1,1.195-1.987,1.749,1.749,0,0,1,2.082,1.119,1.613,1.613,0,0,1-1.195,1.987,2.071,2.071,0,0,1-.444.032,1.668,1.668,0,0,1-1.639-1.151m-4.953-25.482h.038a1.634,1.634,0,0,1,1.5-1.763,1.711,1.711,0,0,1,1.874,1.439,1.623,1.623,0,0,1-1.533,1.766h-.174a1.7,1.7,0,0,1-1.707-1.442m.58-24.168a1.733,1.733,0,1,1,.038,0Zm1.127-25.614a1.651,1.651,0,0,1-1.6-1.731,1.692,1.692,0,0,1,1.843-1.474,1.646,1.646,0,0,1,1.57,1.7,1.676,1.676,0,0,1-1.707,1.5Zm2.287-25.575a1.636,1.636,0,0,1-1.57-1.731,1.676,1.676,0,0,1,1.881-1.442,1.59,1.59,0,0,1,1.533,1.731,1.644,1.644,0,0,1-1.707,1.442Zm2.424-25.55a1.62,1.62,0,0,1-1.57-1.7,1.715,1.715,0,0,1,3.414.221,1.7,1.7,0,0,1-1.707,1.51.209.209,0,0,1-.137-.035m1.642-25.575a1.606,1.606,0,1,1,1.741-1.574,1.683,1.683,0,0,1-1.707,1.574Zm-2.086-27.117h0a1.609,1.609,0,0,1,1.57-1.7,1.6,1.6,0,1,1,.242,3.176h-.137a1.623,1.623,0,0,1-1.676-1.474m-3.615-25.165a1.665,1.665,0,0,1,1.331-1.923,1.714,1.714,0,0,1,2.011,1.25,1.577,1.577,0,0,1-1.3,1.891,1.333,1.333,0,0,1-.372.035,1.7,1.7,0,0,1-1.673-1.253m-7.988-24.133v-.035a1.549,1.549,0,0,1,.888-2.08,1.705,1.705,0,0,1,2.219.83h.034a1.573,1.573,0,0,1-.925,2.119,1.536,1.536,0,0,1-.645.128,1.684,1.684,0,0,1-1.57-.962M303.33,180.86h0a1.541,1.541,0,0,1,.372-2.244,1.811,1.811,0,0,1,2.39.356,1.6,1.6,0,0,1-.372,2.276,1.928,1.928,0,0,1-1.028.285,1.7,1.7,0,0,1-1.362-.673m-18.093-18.655a1.546,1.546,0,0,1-.137-2.276,1.789,1.789,0,0,1,2.386-.128,1.55,1.55,0,0,1,.174,2.276,1.823,1.823,0,0,1-1.3.545,1.794,1.794,0,0,1-1.127-.417M.115,161.564a1.578,1.578,0,0,1,.99-2.08,1.717,1.717,0,0,1,2.181.93,1.533,1.533,0,0,1-.987,2.048v.032a1.708,1.708,0,0,1-.584.1,1.66,1.66,0,0,1-1.6-1.026M25.651,152.5a1.556,1.556,0,0,1,1.024-2.055,1.689,1.689,0,0,1,2.185.962,1.615,1.615,0,0,1-1.024,2.055,1.784,1.784,0,0,1-.58.093,1.763,1.763,0,0,1-1.6-1.055M263.457,147.3a1.562,1.562,0,0,1-.584-2.215,1.789,1.789,0,0,1,2.325-.545,1.572,1.572,0,0,1,.615,2.215,1.765,1.765,0,0,1-1.468.766,1.725,1.725,0,0,1-.888-.221m-212.1-3.433a1.632,1.632,0,0,1,1.1-2.048,1.707,1.707,0,0,1,2.151,1.022,1.568,1.568,0,0,1-1.058,2.019,1.813,1.813,0,0,1-.546.1,1.769,1.769,0,0,1-1.642-1.09M77.4,136.085a1.554,1.554,0,0,1,1.161-1.987,1.715,1.715,0,0,1,2.117,1.087,1.638,1.638,0,0,1-1.164,1.99v-.032a1.357,1.357,0,0,1-.475.061,1.68,1.68,0,0,1-1.639-1.119m161.781.093a1.582,1.582,0,0,1-.956-2.08,1.71,1.71,0,0,1,2.219-.9,1.528,1.528,0,0,1,.952,2.051,1.723,1.723,0,0,1-1.6,1.026,1.936,1.936,0,0,1-.614-.1m-135.361-6.6a1.568,1.568,0,0,1,1.267-1.92h.031a1.7,1.7,0,0,1,2.018,1.218,1.628,1.628,0,0,1-1.3,1.92c-.1,0-.236.032-.372.032a1.657,1.657,0,0,1-1.642-1.25m109.519-.93h.031a1.616,1.616,0,0,1-1.3-1.92,1.694,1.694,0,0,1,2.052-1.186,1.567,1.567,0,0,1,1.263,1.92,1.66,1.66,0,0,1-1.639,1.218,1.766,1.766,0,0,1-.41-.032m-82.683-3.814a1.608,1.608,0,0,1,1.434-1.795,1.694,1.694,0,0,1,1.946,1.378,1.662,1.662,0,0,1-1.471,1.8c-.065,0-.137.029-.236.029a1.655,1.655,0,0,1-1.673-1.41m55.987-.221h0a1.627,1.627,0,0,1-1.536-1.763,1.682,1.682,0,0,1,1.843-1.442,1.617,1.617,0,0,1,1.533,1.76,1.669,1.669,0,0,1-1.707,1.446ZM157.8,122.427a1.712,1.712,0,0,1,3.414-.128,1.61,1.61,0,0,1-1.639,1.667h-.068a1.675,1.675,0,0,1-1.707-1.539" transform="translate(0.001 266.314)" fill="#00d4ab"/>
        <path id="Path_1600" data-name="Path 1600" d="M559.279,616.96a1.718,1.718,0,0,1,3.414.289,1.681,1.681,0,0,1-1.844,1.442v.032a1.676,1.676,0,0,1-1.57-1.763m27.246-.417a1.608,1.608,0,0,1,1.465-1.795v-.032A1.673,1.673,0,0,1,589.9,616.1a1.584,1.584,0,0,1-1.434,1.8.607.607,0,0,1-.235.032,1.7,1.7,0,0,1-1.707-1.378m-52.777-3.109a1.566,1.566,0,0,1-1.062-2.019,1.732,1.732,0,0,1,2.188-.994,1.565,1.565,0,0,1,1.055,2.019,1.7,1.7,0,0,1-1.6,1.09,1.8,1.8,0,0,1-.58-.1m79.3-2.917a1.541,1.541,0,0,1,.99-2.051,1.725,1.725,0,0,1,2.185.929,1.558,1.558,0,0,1-.987,2.051,2.069,2.069,0,0,1-.618.1,1.65,1.65,0,0,1-1.57-1.026m-104.019-8.754H509a1.554,1.554,0,0,1-.41-2.24,1.806,1.806,0,0,1,2.39-.385,1.525,1.525,0,0,1,.406,2.212,1.752,1.752,0,0,1-1.4.705,1.658,1.658,0,0,1-.959-.292m128.431-2.625a1.542,1.542,0,0,1,.44-2.244,1.826,1.826,0,0,1,2.393.449,1.584,1.584,0,0,1-.481,2.244,1.922,1.922,0,0,1-.953.256,1.7,1.7,0,0,1-1.4-.705M488.716,584.074a1.523,1.523,0,0,1,.242-2.244,1.763,1.763,0,0,1,2.39.224,1.5,1.5,0,0,1-.242,2.244,1.666,1.666,0,0,1-1.092.385,1.761,1.761,0,0,1-1.3-.609m169.53-1.442a1.55,1.55,0,0,1-.167-2.276,1.768,1.768,0,0,1,2.424-.128,1.542,1.542,0,0,1,.136,2.244,1.788,1.788,0,0,1-2.393.16M474.1,562.021a1.619,1.619,0,0,1,.853-2.148,1.774,1.774,0,0,1,2.253.8,1.546,1.546,0,0,1-.853,2.115,1.622,1.622,0,0,1-.683.16,1.743,1.743,0,0,1-1.57-.93m199.5-.481a1.563,1.563,0,0,1-.785-2.148,1.759,1.759,0,0,1,2.287-.737,1.56,1.56,0,0,1,.785,2.148,1.693,1.693,0,0,1-1.536.894,2.133,2.133,0,0,1-.751-.157M465.5,537.34h.034a1.588,1.588,0,0,1,1.3-1.891,1.713,1.713,0,0,1,2.014,1.25,1.567,1.567,0,0,1-1.331,1.891,1,1,0,0,1-.307.032,1.7,1.7,0,0,1-1.707-1.282m218.552.513a1.593,1.593,0,0,1-1.024-2.051,1.761,1.761,0,0,1,2.188-.962,1.569,1.569,0,0,1,1.024,2.051,1.7,1.7,0,0,1-1.608,1.058,2.023,2.023,0,0,1-.581-.1m161.3-3.494a1.6,1.6,0,0,1-1.533-1.731,1.637,1.637,0,0,1,1.843-1.442,1.592,1.592,0,0,1,1.533,1.731,1.63,1.63,0,0,1-1.669,1.443Zm25.5-3.914a1.58,1.58,0,0,1,1.089-2.016,1.734,1.734,0,0,1,2.151,1.026,1.6,1.6,0,0,1-1.089,2.019,1.513,1.513,0,0,1-.55.1,1.694,1.694,0,0,1-1.6-1.125m-52.03-4.036a1.551,1.551,0,0,1-.577-2.212,1.807,1.807,0,0,1,2.352-.545,1.586,1.586,0,0,1,.58,2.212,1.725,1.725,0,0,1-1.468.769,1.746,1.746,0,0,1-.888-.224m75.79-8.206a1.509,1.509,0,0,1,.065-2.244,1.806,1.806,0,0,1,2.424.061,1.57,1.57,0,0,1-.065,2.247,1.918,1.918,0,0,1-1.2.449,1.675,1.675,0,0,1-1.226-.513m-200.6-4.2a1.561,1.561,0,0,1-.785-2.148,1.724,1.724,0,0,1,2.257-.769,1.577,1.577,0,0,1,.819,2.148,1.667,1.667,0,0,1-1.536.9,2.067,2.067,0,0,1-.754-.128m-229.4-.866a1.619,1.619,0,0,1-1.676-1.635,1.711,1.711,0,1,1,1.707,1.635ZM798.045,509.2h0a1.511,1.511,0,0,1,.136-2.244,1.75,1.75,0,0,1,2.386.1,1.548,1.548,0,0,1-.1,2.276,1.983,1.983,0,0,1-1.161.417,1.787,1.787,0,0,1-1.263-.545m111.833-11.956a1.584,1.584,0,0,1-1.021-2.055,1.726,1.726,0,0,1,2.181-.958,1.581,1.581,0,0,1,1.024,2.051,1.719,1.719,0,0,1-1.6,1.058,1.852,1.852,0,0,1-.58-.1M708.5,492.37a1.544,1.544,0,0,1-.065-2.276h-.037a1.774,1.774,0,0,1,2.427-.1,1.512,1.512,0,0,1,.1,2.244,1.8,1.8,0,0,1-1.263.542,1.97,1.97,0,0,1-1.161-.414m71.318-2.148a1.52,1.52,0,0,1,0-2.276,1.786,1.786,0,0,1,2.386,0,1.549,1.549,0,0,1,.038,2.276,1.806,1.806,0,0,1-1.233.481,1.7,1.7,0,0,1-1.191-.481m-312.128-2.5a1.593,1.593,0,0,1-1.226-1.923,1.71,1.71,0,0,1,2.079-1.186,1.626,1.626,0,0,1,1.229,1.955,1.706,1.706,0,0,1-1.673,1.186,1.773,1.773,0,0,1-.41-.032m262.42-10.77a1.581,1.581,0,0,1,.956-2.084,1.767,1.767,0,0,1,2.219.9,1.59,1.59,0,0,1-.952,2.083,1.437,1.437,0,0,1-.618.128,1.7,1.7,0,0,1-1.6-1.026M757.9,476.7h0a1.584,1.584,0,0,1-1.123-1.987,1.72,1.72,0,0,1,2.151-1.058,1.608,1.608,0,0,1,1.127,2.019,1.755,1.755,0,0,1-1.642,1.122,1.539,1.539,0,0,1-.512-.1m154.407-6.09a1.66,1.66,0,0,1,1.6-1.731,1.7,1.7,0,0,1,1.809,1.506,1.641,1.641,0,0,1-1.57,1.7h-.136a1.674,1.674,0,0,1-1.707-1.474m-435.261-6.923a1.54,1.54,0,0,1-.683-2.151,1.8,1.8,0,0,1,2.325-.67,1.574,1.574,0,0,1,.679,2.18,1.688,1.688,0,0,1-1.5.833,1.917,1.917,0,0,1-.823-.192M905.1,446.758a1.537,1.537,0,0,1,.683-2.148,1.747,1.747,0,0,1,2.321.641,1.571,1.571,0,0,1-.679,2.18,1.916,1.916,0,0,1-.823.192,1.726,1.726,0,0,1-1.5-.865m-412.355-3.943a1.523,1.523,0,0,1-.034-2.276,1.722,1.722,0,0,1,2.39-.032,1.505,1.505,0,0,1,.034,2.244,1.593,1.593,0,0,1-1.226.513,1.776,1.776,0,0,1-1.164-.449m20.483-16.924a1.529,1.529,0,0,1,.345-2.244,1.725,1.725,0,0,1,2.352.321,1.491,1.491,0,0,1-.307,2.212,1.792,1.792,0,0,1-1.024.353,1.726,1.726,0,0,1-1.366-.641m22.292-14.844a1.544,1.544,0,0,1,.444-2.241,1.774,1.774,0,0,1,2.359.449,1.517,1.517,0,0,1-.444,2.212,1.679,1.679,0,0,1-.959.289,1.7,1.7,0,0,1-1.4-.708m22.4-14.709a1.466,1.466,0,0,1,.338-2.212,1.729,1.729,0,0,1,2.359.289,1.521,1.521,0,0,1-.311,2.244,1.745,1.745,0,0,1-1.024.321,1.667,1.667,0,0,1-1.362-.641M578.636,379.7a1.508,1.508,0,0,1-.065-2.244,1.768,1.768,0,0,1,2.424-.1,1.547,1.547,0,0,1,.065,2.276,1.77,1.77,0,0,1-2.424.064m15.6-20.835a1.62,1.62,0,0,1-.922-2.115,1.808,1.808,0,0,1,2.253-.865,1.6,1.6,0,0,1,.925,2.083,1.709,1.709,0,0,1-1.608.99,2.465,2.465,0,0,1-.649-.093m3.277-26.412a1.653,1.653,0,0,1,1.57-1.731,1.688,1.688,0,0,1,1.843,1.474,1.65,1.65,0,0,1-1.57,1.731h-.137a1.675,1.675,0,0,1-1.707-1.474m-7.882-23.591a1.584,1.584,0,0,1,.679-2.212,1.8,1.8,0,0,1,2.325.641,1.569,1.569,0,0,1-.652,2.18,2.061,2.061,0,0,1-.853.192,1.805,1.805,0,0,1-1.5-.8m-16.625-19.62A1.483,1.483,0,0,1,572.9,287a1.8,1.8,0,0,1,2.424-.064,1.544,1.544,0,0,1,.068,2.276,1.789,1.789,0,0,1-1.226.481,1.538,1.538,0,0,1-1.161-.452m-21.544-15.094h0a1.542,1.542,0,0,1-.615-2.212,1.813,1.813,0,0,1,2.356-.545,1.549,1.549,0,0,1,.584,2.18,1.724,1.724,0,0,1-1.471.8,1.616,1.616,0,0,1-.853-.224m-24.306-11.187a1.593,1.593,0,0,1-.922-2.116,1.765,1.765,0,0,1,2.257-.833,1.549,1.549,0,0,1,.884,2.083,1.69,1.69,0,0,1-1.536.994,1.624,1.624,0,0,1-.683-.128m-25.331-9.52h0a1.587,1.587,0,0,1-.952-2.083,1.732,1.732,0,0,1,2.216-.9,1.564,1.564,0,0,1,.956,2.083,1.772,1.772,0,0,1-1.567,1.026,2.351,2.351,0,0,1-.652-.128m-25.194-10.161a1.559,1.559,0,0,1-.782-2.148,1.758,1.758,0,0,1,2.287-.737,1.588,1.588,0,0,1,.782,2.148,1.8,1.8,0,0,1-1.536.9,2.138,2.138,0,0,1-.751-.16m-23.76-13.142a1.567,1.567,0,0,1-.375-2.244,1.805,1.805,0,0,1,2.39-.356,1.56,1.56,0,0,1,.376,2.247,1.723,1.723,0,0,1-1.4.673,1.66,1.66,0,0,1-.99-.321M432.46,212.674a1.484,1.484,0,0,1,.137-2.244,1.77,1.77,0,0,1,2.424.128,1.519,1.519,0,0,1-.174,2.244,1.629,1.629,0,0,1-1.127.417,1.727,1.727,0,0,1-1.26-.545m-16.151-21.027a1.535,1.535,0,0,1,.614-2.18,1.75,1.75,0,0,1,2.325.577,1.569,1.569,0,0,1-.618,2.212,1.938,1.938,0,0,1-.854.192,1.713,1.713,0,0,1-1.468-.8m-11.5-23.559a1.566,1.566,0,0,1,1.062-2.019,1.769,1.769,0,0,1,2.181.962,1.586,1.586,0,0,1-1.055,2.051,1.665,1.665,0,0,1-.546.1,1.757,1.757,0,0,1-1.642-1.09m-6.449-25.194a1.605,1.605,0,0,1,1.464-1.795,1.679,1.679,0,0,1,1.915,1.346,1.625,1.625,0,0,1-1.471,1.827h-.236a1.659,1.659,0,0,1-1.673-1.378m.546-24.2a1.651,1.651,0,0,1-1.608-1.7,1.728,1.728,0,0,1,1.809-1.507,1.6,1.6,0,1,1-.065,3.205Zm4.366-25.258a1.569,1.569,0,0,1-1.161-1.987,1.731,1.731,0,0,1,2.117-1.09,1.633,1.633,0,0,1,1.161,1.987,1.724,1.724,0,0,1-1.635,1.154,1.166,1.166,0,0,1-.481-.064M413.41,69.684a1.529,1.529,0,0,1-.652-2.18,1.7,1.7,0,0,1,2.287-.609,1.539,1.539,0,0,1,.683,2.18,1.721,1.721,0,0,1-1.5.8,1.9,1.9,0,0,1-.816-.192M428.6,48.433a1.513,1.513,0,0,1-.171-2.244A1.8,1.8,0,0,1,430.852,46a1.574,1.574,0,0,1,.171,2.276,1.811,1.811,0,0,1-1.3.545,1.834,1.834,0,0,1-1.127-.385m19.36-18.046a1.548,1.548,0,0,1,.27-2.244,1.806,1.806,0,0,1,2.424.256,1.545,1.545,0,0,1-.27,2.244A1.624,1.624,0,0,1,449.32,31a1.733,1.733,0,0,1-1.362-.609m22.664-14.232a1.563,1.563,0,0,1,.751-2.148,1.726,1.726,0,0,1,2.287.673,1.585,1.585,0,0,1-.717,2.18,2.46,2.46,0,0,1-.782.16,1.775,1.775,0,0,1-1.54-.865m25.194-9.776a1.6,1.6,0,0,1,1.195-1.987,1.689,1.689,0,0,1,2.082,1.09,1.569,1.569,0,0,1-1.161,1.987,2.378,2.378,0,0,1-.475.064,1.671,1.671,0,0,1-1.642-1.154m26.8-4.68A1.671,1.671,0,0,1,524.223,0a1.7,1.7,0,0,1,1.806,1.506,1.61,1.61,0,0,1-1.6,1.7h-.1A1.674,1.674,0,0,1,522.615,1.7" transform="translate(958.99 -0.001)" fill="#00d4ab"/>
        <path id="Path_1601" data-name="Path 1601" d="M941.706,663.469c-70.56-2.657-136.747-42.608-168.622-101.782-9.354-17.37-15.789-36.175-22.009-54.362-4.571-13.36-9.3-27.172-15.134-40.275-9.552-21.424-31.37-59.01-70.185-70.087-41.768-11.911-85.376,10.523-123.843,30.326l-5.882,3.023c-39.464,20.229-94.617,38.624-133.244,11.4-32.189-22.684-33.95-60.4-35.811-100.333-1.089-23.408-2.216-47.612-9.982-68.664C334.136,210.747,254.84,184.8,191.862,191.835c-68.4,7.654-129.609,44.538-183.619,77.081l-1.847-2.7c54.324-32.729,115.889-69.825,185.056-77.562,64.326-7.193,145.323,19.453,168.769,83,7.927,21.5,9.067,45.939,10.166,69.575,1.83,39.153,3.554,76.139,34.445,97.916,37.18,26.194,90.978,8.125,129.564-11.651l5.875-3.023C579.333,404.37,623.6,381.59,666.75,393.9c29.758,8.494,55.447,34.034,72.335,71.915,5.9,13.232,10.648,27.114,15.239,40.534,6.182,18.068,12.573,36.752,21.807,53.9,30.84,57.253,97.434,97.451,165.713,100.022Z" transform="translate(15.439 413.525)" fill="#fff"/>
        <path id="Path_1602" data-name="Path 1602" d="M1068.783,405.227a168.827,168.827,0,0,1-42.857-5.593c-40.1-10.539-73.172-34.662-90.753-66.177-6.848-12.28-11.843-25.777-16.68-38.826-8.715-23.53-16.95-45.753-35.162-62.2-47.066-42.512-126.994-16.312-170.448,3.09l-3.67,1.638c-54.973,24.572-117.275,52.407-172.4,28.457-51.057-22.184-70.424-78.71-87.513-128.585-1.717-5.01-3.417-9.978-5.134-14.869C424.443,65.986,382.422,8.213,323.5,14.518l-.389-3.183c60.961-6.564,104.156,52.449,124.3,109.821,1.721,4.9,3.424,9.872,5.145,14.889,17.7,51.654,36,105.067,85.7,126.658,53.672,23.328,115.206-4.17,169.5-28.438l3.67-1.641c44.246-19.758,125.737-46.359,174.282-2.507,18.8,16.982,27.553,40.611,36.019,63.462,4.793,12.94,9.753,26.322,16.485,38.39,17.144,30.736,49.452,54.276,88.646,64.578s79.825,5.943,111.474-11.975l1.762,2.747c-20.913,11.834-45.636,17.908-71.3,17.908" transform="translate(779.92 23.891)" fill="#fff"/>
        <path id="Path_1603" data-name="Path 1603" d="M171.288,159.479a2.023,2.023,0,1,1-2.018-1.894,1.961,1.961,0,0,1,2.018,1.894" transform="translate(403.708 347.525)" fill="#00cdc0"/>
        <path id="Path_1604" data-name="Path 1604" d="M121.134,166.6a2.023,2.023,0,1,1-2.021-1.894,1.962,1.962,0,0,1,2.021,1.894" transform="translate(282.645 363.227)" fill="#00cdc0"/>
        <path id="Path_1605" data-name="Path 1605" d="M192.751,162.244a2.023,2.023,0,1,1-2.018-1.894,1.961,1.961,0,0,1,2.018,1.894" transform="translate(455.515 353.623)" fill="#00cdc0"/>
        <path id="Path_1606" data-name="Path 1606" d="M160.788,111.611a2.023,2.023,0,1,1-2.021-1.894,1.962,1.962,0,0,1,2.021,1.894" transform="translate(378.363 241.961)" fill="#00cdc0"/>
        <path id="Path_1607" data-name="Path 1607" d="M132.8,171.385a2.023,2.023,0,1,1-2.021-1.9,1.959,1.959,0,0,1,2.021,1.9" transform="translate(310.807 373.773)" fill="#00cdc0"/>
        <path id="Path_1608" data-name="Path 1608" d="M133.064,180.959a2.023,2.023,0,1,1-2.021-1.894,1.962,1.962,0,0,1,2.021,1.894" transform="translate(311.442 394.895)" fill="#00cdc0"/>
        <path id="Path_1609" data-name="Path 1609" d="M156.195,154.207a2.023,2.023,0,1,1-2.021-1.9,1.959,1.959,0,0,1,2.021,1.9" transform="translate(367.276 335.89)" fill="#00cdc0"/>
        <path id="Path_1610" data-name="Path 1610" d="M174.478,166.627a2.023,2.023,0,1,1-2.018-1.894,1.961,1.961,0,0,1,2.018,1.894" transform="translate(411.408 363.289)" fill="#00cdc0"/>
        <path id="Path_1611" data-name="Path 1611" d="M176.488,153.076a2.023,2.023,0,1,1-2.018-1.9,1.959,1.959,0,0,1,2.018,1.9" transform="translate(416.26 333.396)" fill="#00cdc0"/>
        <path id="Path_1612" data-name="Path 1612" d="M185.408,150.909a2.023,2.023,0,1,1-2.021-1.894,1.959,1.959,0,0,1,2.021,1.894" transform="translate(437.791 328.626)" fill="#00cdc0"/>
        <path id="Path_1613" data-name="Path 1613" d="M180.667,128.455a2.023,2.023,0,1,1-2.021-1.894,1.962,1.962,0,0,1,2.021,1.894" transform="translate(426.347 279.107)" fill="#00cdc0"/>
        <path id="Path_1614" data-name="Path 1614" d="M127.194,164.313a2.021,2.021,0,1,1-2.021-1.9,1.962,1.962,0,0,1,2.021,1.9" transform="translate(297.283 358.177)" fill="#00cdc0"/>
        <path id="Path_1615" data-name="Path 1615" d="M154.523,175.028a2.023,2.023,0,1,1-2.021-1.894,1.959,1.959,0,0,1,2.021,1.894" transform="translate(363.24 381.816)" fill="#00cdc0"/>
        <path id="Path_1616" data-name="Path 1616" d="M168.263,114.4a2.023,2.023,0,1,1-2.018-1.9,1.958,1.958,0,0,1,2.018,1.9" transform="translate(396.406 248.094)" fill="#00cdc0"/>
        <path id="Path_1617" data-name="Path 1617" d="M118.951,157.519a2.023,2.023,0,1,1-2.018-1.9,1.958,1.958,0,0,1,2.018,1.9" transform="translate(277.376 343.194)" fill="#00cdc0"/>
        <path id="Path_1618" data-name="Path 1618" d="M175.91,116.063a2.023,2.023,0,1,1-2.018-1.9,1.958,1.958,0,0,1,2.018,1.9" transform="translate(414.865 251.77)" fill="#00cdc0"/>
        <path id="Path_1619" data-name="Path 1619" d="M140.992,146.219a2.023,2.023,0,1,1-2.021-1.894,1.962,1.962,0,0,1,2.021,1.894" transform="translate(330.579 318.283)" fill="#00cdc0"/>
        <path id="Path_1620" data-name="Path 1620" d="M126.785,155.422a2.023,2.023,0,1,1-2.021-1.9,1.959,1.959,0,0,1,2.021,1.9" transform="translate(296.286 338.569)" fill="#00cdc0"/>
        <path id="Path_1621" data-name="Path 1621" d="M151.514,160.5a2.023,2.023,0,1,1-2.021-1.894,1.959,1.959,0,0,1,2.021,1.894" transform="translate(355.977 349.783)" fill="#00cdc0"/>
        <path id="Path_1622" data-name="Path 1622" d="M133.163,119.389a2.023,2.023,0,1,1-2.021-1.894,1.962,1.962,0,0,1,2.021,1.894" transform="translate(311.681 259.114)" fill="#00cdc0"/>
        <path id="Path_1623" data-name="Path 1623" d="M148.154,167.632a2.023,2.023,0,1,1-2.021-1.894,1.962,1.962,0,0,1,2.021,1.894" transform="translate(347.867 365.505)" fill="#00cdc0"/>
        <path id="Path_1624" data-name="Path 1624" d="M162.895,132.109a2.023,2.023,0,1,1-2.018-1.894,1.961,1.961,0,0,1,2.018,1.894" transform="translate(383.449 287.165)" fill="#00cdc0"/>
        <path id="Path_1625" data-name="Path 1625" d="M183.289,159.693a2.023,2.023,0,1,1-2.018-1.9,1.958,1.958,0,0,1,2.018,1.9" transform="translate(432.676 347.988)" fill="#00cdc0"/>
        <path id="Path_1626" data-name="Path 1626" d="M186.719,142.864a2.023,2.023,0,1,1-2.021-1.894,1.962,1.962,0,0,1,2.021,1.894" transform="translate(440.958 310.884)" fill="#00cdc0"/>
        <path id="Path_1627" data-name="Path 1627" d="M125.331,127.793a2.023,2.023,0,1,1-2.021-1.9,1.962,1.962,0,0,1,2.021,1.9" transform="translate(292.776 277.638)" fill="#00cdc0"/>
        <path id="Path_1628" data-name="Path 1628" d="M135.141,152.7a2.023,2.023,0,1,1-2.021-1.894,1.962,1.962,0,0,1,2.021,1.894" transform="translate(316.456 332.571)" fill="#00cdc0"/>
        <path id="Path_1629" data-name="Path 1629" d="M157.281,167.641a2.023,2.023,0,1,1-2.018-1.894,1.961,1.961,0,0,1,2.018,1.894" transform="translate(369.897 365.525)" fill="#00cdc0"/>
        <path id="Path_1630" data-name="Path 1630" d="M142.521,122.276a2.023,2.023,0,1,1-2.021-1.894,1.962,1.962,0,0,1,2.021,1.894" transform="translate(334.27 265.481)" fill="#00cdc0"/>
        <path id="Path_1631" data-name="Path 1631" d="M164.56,152.475a2.023,2.023,0,1,1-2.018-1.894,1.961,1.961,0,0,1,2.018,1.894" transform="translate(387.468 332.079)" fill="#00cdc0"/>
        <path id="Path_1632" data-name="Path 1632" d="M154.716,136.137a2.023,2.023,0,1,1-2.021-1.9,1.962,1.962,0,0,1,2.021,1.9" transform="translate(363.706 296.04)" fill="#00cdc0"/>
        <path id="Path_1633" data-name="Path 1633" d="M152.243,111.644a2.023,2.023,0,1,1-2.021-1.9,1.959,1.959,0,0,1,2.021,1.9" transform="translate(357.737 242.025)" fill="#00cdc0"/>
        <path id="Path_1634" data-name="Path 1634" d="M162.051,160.722a2.023,2.023,0,1,1-2.021-1.894,1.962,1.962,0,0,1,2.021,1.894" transform="translate(381.411 350.266)" fill="#00cdc0"/>
        <path id="Path_1635" data-name="Path 1635" d="M154.2,127.668a2.023,2.023,0,1,1-2.018-1.894,1.961,1.961,0,0,1,2.018,1.894" transform="translate(362.465 277.372)" fill="#00cdc0"/>
        <path id="Path_1636" data-name="Path 1636" d="M194.939,145.471a2.023,2.023,0,1,1-2.018-1.894,1.961,1.961,0,0,1,2.018,1.894" transform="translate(460.797 316.633)" fill="#00cdc0"/>
        <path id="Path_1637" data-name="Path 1637" d="M152.6,189.033a2.023,2.023,0,1,1-2.021-1.9,1.959,1.959,0,0,1,2.021,1.9" transform="translate(358.591 412.692)" fill="#00cdc0"/>
        <path id="Path_1638" data-name="Path 1638" d="M133.088,142.988a2.023,2.023,0,1,1-2.021-1.894,1.962,1.962,0,0,1,2.021,1.894" transform="translate(311.5 311.157)" fill="#00cdc0"/>
        <path id="Path_1639" data-name="Path 1639" d="M139.738,178.357a2.023,2.023,0,1,1-2.018-1.894,1.961,1.961,0,0,1,2.018,1.894" transform="translate(327.552 389.157)" fill="#00cdc0"/>
        <path id="Path_1640" data-name="Path 1640" d="M181.756,168.258a2.023,2.023,0,1,1-2.021-1.9,1.959,1.959,0,0,1,2.021,1.9" transform="translate(428.976 366.877)" fill="#00cdc0"/>
        <path id="Path_1641" data-name="Path 1641" d="M139.575,136.632a2.023,2.023,0,1,1-2.018-1.894,1.961,1.961,0,0,1,2.018,1.894" transform="translate(327.159 297.14)" fill="#00cdc0"/>
        <path id="Path_1642" data-name="Path 1642" d="M167.016,125.012a2.023,2.023,0,1,1-2.018-1.9,1.958,1.958,0,0,1,2.018,1.9" transform="translate(393.396 271.506)" fill="#00cdc0"/>
        <path id="Path_1643" data-name="Path 1643" d="M158.229,182.541a2.023,2.023,0,1,1-2.021-1.9,1.959,1.959,0,0,1,2.021,1.9" transform="translate(372.186 398.375)" fill="#00cdc0"/>
        <path id="Path_1644" data-name="Path 1644" d="M168.694,184.181a2.023,2.023,0,1,1-2.021-1.9,1.959,1.959,0,0,1,2.021,1.9" transform="translate(397.446 401.992)" fill="#00cdc0"/>
        <path id="Path_1645" data-name="Path 1645" d="M118.187,147.883a2.023,2.023,0,1,1-2.018-1.894,1.961,1.961,0,0,1,2.018,1.894" transform="translate(275.532 321.952)" fill="#00cdc0"/>
        <path id="Path_1646" data-name="Path 1646" d="M141.816,161.714a2.023,2.023,0,1,1-2.021-1.9,1.959,1.959,0,0,1,2.021,1.9" transform="translate(332.568 352.445)" fill="#00cdc0"/>
        <path id="Path_1647" data-name="Path 1647" d="M147.837,140.359a2.023,2.023,0,1,1-2.021-1.894,1.962,1.962,0,0,1,2.021,1.894" transform="translate(347.102 305.359)" fill="#00cdc0"/>
        <path id="Path_1648" data-name="Path 1648" d="M177.878,143.338a2.023,2.023,0,1,1-2.021-1.9,1.959,1.959,0,0,1,2.021,1.9" transform="translate(419.615 311.92)" fill="#00cdc0"/>
        <path id="Path_1649" data-name="Path 1649" d="M144.188,154.923a2.023,2.023,0,1,1-2.021-1.894,1.962,1.962,0,0,1,2.021,1.894" transform="translate(338.293 337.478)" fill="#00cdc0"/>
        <path id="Path_1650" data-name="Path 1650" d="M162.795,141.63a2.023,2.023,0,1,1-2.018-1.894,1.961,1.961,0,0,1,2.018,1.894" transform="translate(383.207 308.162)" fill="#00cdc0"/>
        <path id="Path_1651" data-name="Path 1651" d="M156.542,145.567a2.023,2.023,0,1,1-2.021-1.894,1.962,1.962,0,0,1,2.021,1.894" transform="translate(368.114 316.845)" fill="#00cdc0"/>
        <path id="Path_1652" data-name="Path 1652" d="M142.166,186.267a2.023,2.023,0,1,1-2.018-1.894,1.961,1.961,0,0,1,2.018,1.894" transform="translate(333.413 406.601)" fill="#00cdc0"/>
        <path id="Path_1653" data-name="Path 1653" d="M183.324,177.377a2.023,2.023,0,1,1-2.018-1.9,1.958,1.958,0,0,1,2.018,1.9" transform="translate(432.76 386.987)" fill="#00cdc0"/>
        <path id="Path_1654" data-name="Path 1654" d="M135.238,127.747a2.023,2.023,0,1,1-2.018-1.9,1.958,1.958,0,0,1,2.018,1.9" transform="translate(316.69 277.537)" fill="#00cdc0"/>
        <path id="Path_1655" data-name="Path 1655" d="M173.634,175.383a2.023,2.023,0,1,1-2.021-1.9,1.962,1.962,0,0,1,2.021,1.9" transform="translate(409.371 382.59)" fill="#00cdc0"/>
        <path id="Path_1656" data-name="Path 1656" d="M120.931,137.851a2.023,2.023,0,1,1-2.021-1.894,1.962,1.962,0,0,1,2.021,1.894" transform="translate(282.155 299.828)" fill="#00cdc0"/>
        <path id="Path_1657" data-name="Path 1657" d="M134.1,161.59a2.023,2.023,0,1,1-2.021-1.894,1.962,1.962,0,0,1,2.021,1.894" transform="translate(313.938 352.18)" fill="#00cdc0"/>
        <path id="Path_1658" data-name="Path 1658" d="M163.72,176.043a2.023,2.023,0,1,1-2.018-1.894,1.961,1.961,0,0,1,2.018,1.894" transform="translate(385.44 384.054)" fill="#00cdc0"/>
        <path id="Path_1659" data-name="Path 1659" d="M126.343,174.281a2.023,2.023,0,1,1-2.021-1.894,1.962,1.962,0,0,1,2.021,1.894" transform="translate(295.219 380.168)" fill="#00cdc0"/>
        <path id="Path_1660" data-name="Path 1660" d="M142.647,114.057a2.023,2.023,0,1,1-2.021-1.9,1.961,1.961,0,0,1,2.021,1.9" transform="translate(334.574 247.346)" fill="#00cdc0"/>
        <path id="Path_1661" data-name="Path 1661" d="M192.9,136.367a2.023,2.023,0,1,1-2.021-1.894,1.962,1.962,0,0,1,2.021,1.894" transform="translate(455.878 296.556)" fill="#00cdc0"/>
        <path id="Path_1662" data-name="Path 1662" d="M176.389,183.7a2.023,2.023,0,1,1-2.021-1.9,1.959,1.959,0,0,1,2.021,1.9" transform="translate(416.021 400.936)" fill="#00cdc0"/>
        <path id="Path_1663" data-name="Path 1663" d="M174.176,123.644a2.023,2.023,0,1,1-2.021-1.9,1.959,1.959,0,0,1,2.021,1.9" transform="translate(410.679 268.489)" fill="#00cdc0"/>
        <path id="Path_1664" data-name="Path 1664" d="M145.521,130.355a2.023,2.023,0,1,1-2.018-1.894,1.961,1.961,0,0,1,2.018,1.894" transform="translate(341.511 283.297)" fill="#00cdc0"/>
        <path id="Path_1665" data-name="Path 1665" d="M126.328,146.592a2.023,2.023,0,1,1-2.021-1.9,1.959,1.959,0,0,1,2.021,1.9" transform="translate(295.183 319.096)" fill="#00cdc0"/>
        <path id="Path_1666" data-name="Path 1666" d="M170.012,147.226a2.023,2.023,0,1,1-2.021-1.894,1.962,1.962,0,0,1,2.021,1.894" transform="translate(400.628 320.503)" fill="#00cdc0"/>
        <path id="Path_1667" data-name="Path 1667" d="M183.056,121.168a2.023,2.023,0,1,1-2.021-1.9,1.959,1.959,0,0,1,2.021,1.9" transform="translate(432.114 263.028)" fill="#00cdc0"/>
        <path id="Path_1668" data-name="Path 1668" d="M170.06,138.6a2.023,2.023,0,1,1-2.021-1.894,1.959,1.959,0,0,1,2.021,1.894" transform="translate(400.744 301.476)" fill="#00cdc0"/>
        <path id="Path_1669" data-name="Path 1669" d="M149.114,182.178a2.023,2.023,0,1,1-2.021-1.9,1.959,1.959,0,0,1,2.021,1.9" transform="translate(350.184 397.575)" fill="#00cdc0"/>
        <path id="Path_1670" data-name="Path 1670" d="M183.1,135.784a2.023,2.023,0,1,1-2.021-1.894,1.962,1.962,0,0,1,2.021,1.894" transform="translate(432.22 295.27)" fill="#00cdc0"/>
        <path id="Path_1671" data-name="Path 1671" d="M162.714,188.848a2.023,2.023,0,1,1-2.021-1.9,1.959,1.959,0,0,1,2.021,1.9" transform="translate(383.012 412.284)" fill="#00cdc0"/>
        <path id="Path_1672" data-name="Path 1672" d="M189.582,170.258a2.023,2.023,0,1,1-2.018-1.894,1.961,1.961,0,0,1,2.018,1.894" transform="translate(447.866 371.296)" fill="#00cdc0"/>
        <path id="Path_1673" data-name="Path 1673" d="M146.31,174.991a2.023,2.023,0,1,1-2.021-1.894,1.962,1.962,0,0,1,2.021,1.894" transform="translate(343.416 381.734)" fill="#00cdc0"/>
        <path id="Path_1674" data-name="Path 1674" d="M160.165,120.561a2.023,2.023,0,1,1-2.018-1.894,1.961,1.961,0,0,1,2.018,1.894" transform="translate(376.859 261.699)" fill="#00cdc0"/>
        <path id="Path_1675" data-name="Path 1675" d="M166.344,168.365a2.023,2.023,0,1,1-2.018-1.894,1.961,1.961,0,0,1,2.018,1.894" transform="translate(391.774 367.122)" fill="#00cdc0"/>
        <path id="Path_1676" data-name="Path 1676" d="M188.9,128.368a2.023,2.023,0,1,1-2.021-1.9,1.959,1.959,0,0,1,2.021,1.9" transform="translate(446.232 278.907)" fill="#00cdc0"/>
        <path id="Path_1677" data-name="Path 1677" d="M151.106,119.814a2.023,2.023,0,1,1-2.021-1.894,1.962,1.962,0,0,1,2.021,1.894" transform="translate(354.992 260.051)" fill="#00cdc0"/>
        <path id="Path_1678" data-name="Path 1678" d="M194.456,154.146a2.023,2.023,0,1,1-2.021-1.894,1.962,1.962,0,0,1,2.021,1.894" transform="translate(459.631 335.764)" fill="#00cdc0"/>
        <path id="Path_1679" data-name="Path 1679" d="M130.068,135.222a2.023,2.023,0,1,1-2.018-1.9,1.958,1.958,0,0,1,2.018,1.9" transform="translate(304.21 294.022)" fill="#00cdc0"/>
        <path id="Path_1680" data-name="Path 1680" d="M173.907,132.735a2.023,2.023,0,1,1-2.018-1.9,1.959,1.959,0,0,1,2.018,1.9" transform="translate(410.03 288.537)" fill="#00cdc0"/>
        <path id="Path_1681" data-name="Path 1681" d="M139.779,169.565a2.023,2.023,0,1,1-2.021-1.9,1.959,1.959,0,0,1,2.021,1.9" transform="translate(327.651 369.759)" fill="#00cdc0"/>
        <path id="Path_1682" data-name="Path 1682" d="M149.3,149.3a2.023,2.023,0,1,1-2.021-1.894A1.962,1.962,0,0,1,149.3,149.3" transform="translate(350.623 325.082)" fill="#00cdc0"/>
        <path id="Path_1683" data-name="Path 1683" d="M353.661,263.241a2.842,2.842,0,1,0-3.021-2.837,2.932,2.932,0,0,0,3.021,2.837" transform="translate(846.379 568.019)" fill="#fff"/>
        <path id="Path_1684" data-name="Path 1684" d="M362.285,263.241a2.842,2.842,0,1,0-3.021-2.837,2.932,2.932,0,0,0,3.021,2.837" transform="translate(867.196 568.019)" fill="#fff"/>
        <path id="Path_1685" data-name="Path 1685" d="M370.909,263.241a2.842,2.842,0,1,0-3.021-2.837,2.932,2.932,0,0,0,3.021,2.837" transform="translate(888.013 568.019)" fill="#fff"/>
        <path id="Path_1686" data-name="Path 1686" d="M379.532,263.241a2.842,2.842,0,1,0-3.021-2.837,2.932,2.932,0,0,0,3.021,2.837" transform="translate(908.827 568.019)" fill="#fff"/>
        <path id="Path_1687" data-name="Path 1687" d="M388.156,263.241a2.842,2.842,0,1,0-3.021-2.837,2.932,2.932,0,0,0,3.021,2.837" transform="translate(929.644 568.019)" fill="#fff"/>
        <path id="Path_1688" data-name="Path 1688" d="M396.78,263.241a2.842,2.842,0,1,0-3.021-2.837,2.932,2.932,0,0,0,3.021,2.837" transform="translate(950.461 568.019)" fill="#fff"/>
        <path id="Path_1689" data-name="Path 1689" d="M405.4,263.241a2.842,2.842,0,1,0-3.021-2.837,2.933,2.933,0,0,0,3.021,2.837" transform="translate(971.277 568.019)" fill="#fff"/>
        <path id="Path_1690" data-name="Path 1690" d="M414.028,263.241a2.842,2.842,0,1,0-3.021-2.837,2.932,2.932,0,0,0,3.021,2.837" transform="translate(992.094 568.019)" fill="#fff"/>
        <path id="Path_1691" data-name="Path 1691" d="M422.652,263.241a2.842,2.842,0,1,0-3.021-2.837,2.932,2.932,0,0,0,3.021,2.837" transform="translate(1012.911 568.019)" fill="#fff"/>
        <path id="Path_1692" data-name="Path 1692" d="M431.276,263.241a2.842,2.842,0,1,0-3.021-2.837,2.932,2.932,0,0,0,3.021,2.837" transform="translate(1033.728 568.019)" fill="#fff"/>
        <path id="Path_1693" data-name="Path 1693" d="M439.9,263.241a2.842,2.842,0,1,0-3.021-2.837,2.93,2.93,0,0,0,3.021,2.837" transform="translate(1054.542 568.019)" fill="#fff"/>
        <path id="Path_1694" data-name="Path 1694" d="M448.523,263.241A2.842,2.842,0,1,0,445.5,260.4a2.932,2.932,0,0,0,3.021,2.837" transform="translate(1075.359 568.019)" fill="#fff"/>
        <path id="Path_1695" data-name="Path 1695" d="M457.147,263.241a2.842,2.842,0,1,0-3.021-2.837,2.932,2.932,0,0,0,3.021,2.837" transform="translate(1096.175 568.019)" fill="#fff"/>
        <path id="Path_1696" data-name="Path 1696" d="M465.771,263.241a2.842,2.842,0,1,0-3.021-2.837,2.932,2.932,0,0,0,3.021,2.837" transform="translate(1116.992 568.019)" fill="#fff"/>
        <path id="Path_1697" data-name="Path 1697" d="M474.4,263.241a2.842,2.842,0,1,0-3.021-2.837,2.932,2.932,0,0,0,3.021,2.837" transform="translate(1137.808 568.019)" fill="#fff"/>
        <path id="Path_1698" data-name="Path 1698" d="M483.019,263.241A2.842,2.842,0,1,0,480,260.4a2.932,2.932,0,0,0,3.021,2.837" transform="translate(1158.625 568.019)" fill="#fff"/>
        <path id="Path_1699" data-name="Path 1699" d="M491.643,263.241a2.842,2.842,0,1,0-3.021-2.837,2.932,2.932,0,0,0,3.021,2.837" transform="translate(1179.442 568.019)" fill="#fff"/>
        <path id="Path_1700" data-name="Path 1700" d="M500.266,263.241a2.842,2.842,0,1,0-3.021-2.837,2.933,2.933,0,0,0,3.021,2.837" transform="translate(1200.256 568.019)" fill="#fff"/>
        <path id="Path_1701" data-name="Path 1701" d="M353.661,271.865a2.842,2.842,0,1,0-3.021-2.837,2.932,2.932,0,0,0,3.021,2.837" transform="translate(846.379 587.038)" fill="#fff"/>
        <path id="Path_1702" data-name="Path 1702" d="M362.285,271.865a2.842,2.842,0,1,0-3.021-2.837,2.932,2.932,0,0,0,3.021,2.837" transform="translate(867.196 587.038)" fill="#fff"/>
        <path id="Path_1703" data-name="Path 1703" d="M370.909,271.865a2.842,2.842,0,1,0-3.021-2.837,2.932,2.932,0,0,0,3.021,2.837" transform="translate(888.013 587.038)" fill="#fff"/>
        <path id="Path_1704" data-name="Path 1704" d="M379.532,271.865a2.842,2.842,0,1,0-3.021-2.837,2.932,2.932,0,0,0,3.021,2.837" transform="translate(908.827 587.038)" fill="#fff"/>
        <path id="Path_1705" data-name="Path 1705" d="M388.156,271.865a2.842,2.842,0,1,0-3.021-2.837,2.932,2.932,0,0,0,3.021,2.837" transform="translate(929.644 587.038)" fill="#fff"/>
        <path id="Path_1706" data-name="Path 1706" d="M396.78,271.865a2.842,2.842,0,1,0-3.021-2.837,2.932,2.932,0,0,0,3.021,2.837" transform="translate(950.461 587.038)" fill="#fff"/>
        <path id="Path_1707" data-name="Path 1707" d="M405.4,271.865a2.842,2.842,0,1,0-3.021-2.837,2.932,2.932,0,0,0,3.021,2.837" transform="translate(971.277 587.038)" fill="#fff"/>
        <path id="Path_1708" data-name="Path 1708" d="M414.028,271.865a2.842,2.842,0,1,0-3.021-2.837,2.932,2.932,0,0,0,3.021,2.837" transform="translate(992.094 587.038)" fill="#fff"/>
        <path id="Path_1709" data-name="Path 1709" d="M422.652,271.865a2.842,2.842,0,1,0-3.021-2.837,2.932,2.932,0,0,0,3.021,2.837" transform="translate(1012.911 587.038)" fill="#fff"/>
        <path id="Path_1710" data-name="Path 1710" d="M431.276,271.865a2.842,2.842,0,1,0-3.021-2.837,2.932,2.932,0,0,0,3.021,2.837" transform="translate(1033.728 587.038)" fill="#fff"/>
        <path id="Path_1711" data-name="Path 1711" d="M439.9,271.865a2.842,2.842,0,1,0-3.021-2.837,2.93,2.93,0,0,0,3.021,2.837" transform="translate(1054.542 587.038)" fill="#fff"/>
        <path id="Path_1712" data-name="Path 1712" d="M448.523,271.865a2.842,2.842,0,1,0-3.021-2.837,2.932,2.932,0,0,0,3.021,2.837" transform="translate(1075.359 587.038)" fill="#fff"/>
        <path id="Path_1713" data-name="Path 1713" d="M457.147,271.865a2.842,2.842,0,1,0-3.021-2.837,2.932,2.932,0,0,0,3.021,2.837" transform="translate(1096.175 587.038)" fill="#fff"/>
        <path id="Path_1714" data-name="Path 1714" d="M465.771,271.865a2.842,2.842,0,1,0-3.021-2.837,2.932,2.932,0,0,0,3.021,2.837" transform="translate(1116.992 587.038)" fill="#fff"/>
        <path id="Path_1715" data-name="Path 1715" d="M474.4,271.865a2.842,2.842,0,1,0-3.021-2.837,2.932,2.932,0,0,0,3.021,2.837" transform="translate(1137.808 587.038)" fill="#fff"/>
        <path id="Path_1716" data-name="Path 1716" d="M483.019,271.865A2.842,2.842,0,1,0,480,269.029a2.932,2.932,0,0,0,3.021,2.837" transform="translate(1158.625 587.038)" fill="#fff"/>
        <path id="Path_1717" data-name="Path 1717" d="M491.643,271.865a2.842,2.842,0,1,0-3.021-2.837,2.932,2.932,0,0,0,3.021,2.837" transform="translate(1179.442 587.038)" fill="#fff"/>
        <path id="Path_1718" data-name="Path 1718" d="M500.266,271.865a2.842,2.842,0,1,0-3.021-2.837,2.933,2.933,0,0,0,3.021,2.837" transform="translate(1200.256 587.038)" fill="#fff"/>
        <path id="Path_1719" data-name="Path 1719" d="M353.661,280.489a2.842,2.842,0,1,0-3.021-2.837,2.932,2.932,0,0,0,3.021,2.837" transform="translate(846.379 606.057)" fill="#fff"/>
        <path id="Path_1720" data-name="Path 1720" d="M362.285,280.489a2.842,2.842,0,1,0-3.021-2.837,2.932,2.932,0,0,0,3.021,2.837" transform="translate(867.196 606.057)" fill="#fff"/>
        <path id="Path_1721" data-name="Path 1721" d="M370.909,280.489a2.842,2.842,0,1,0-3.021-2.837,2.932,2.932,0,0,0,3.021,2.837" transform="translate(888.013 606.057)" fill="#fff"/>
        <path id="Path_1722" data-name="Path 1722" d="M379.532,280.489a2.842,2.842,0,1,0-3.021-2.837,2.932,2.932,0,0,0,3.021,2.837" transform="translate(908.827 606.057)" fill="#fff"/>
        <path id="Path_1723" data-name="Path 1723" d="M388.156,280.489a2.842,2.842,0,1,0-3.021-2.837,2.932,2.932,0,0,0,3.021,2.837" transform="translate(929.644 606.057)" fill="#fff"/>
        <path id="Path_1724" data-name="Path 1724" d="M396.78,280.489a2.842,2.842,0,1,0-3.021-2.837,2.932,2.932,0,0,0,3.021,2.837" transform="translate(950.461 606.057)" fill="#fff"/>
        <path id="Path_1725" data-name="Path 1725" d="M405.4,280.489a2.842,2.842,0,1,0-3.021-2.837,2.932,2.932,0,0,0,3.021,2.837" transform="translate(971.277 606.057)" fill="#fff"/>
        <path id="Path_1726" data-name="Path 1726" d="M414.028,280.489a2.842,2.842,0,1,0-3.021-2.837,2.932,2.932,0,0,0,3.021,2.837" transform="translate(992.094 606.057)" fill="#fff"/>
        <path id="Path_1727" data-name="Path 1727" d="M422.652,280.489a2.842,2.842,0,1,0-3.021-2.837,2.932,2.932,0,0,0,3.021,2.837" transform="translate(1012.911 606.057)" fill="#fff"/>
        <path id="Path_1728" data-name="Path 1728" d="M431.276,280.489a2.842,2.842,0,1,0-3.021-2.837,2.932,2.932,0,0,0,3.021,2.837" transform="translate(1033.728 606.057)" fill="#fff"/>
        <path id="Path_1729" data-name="Path 1729" d="M439.9,280.489a2.842,2.842,0,1,0-3.021-2.837,2.93,2.93,0,0,0,3.021,2.837" transform="translate(1054.542 606.057)" fill="#fff"/>
        <path id="Path_1730" data-name="Path 1730" d="M448.523,280.489a2.842,2.842,0,1,0-3.021-2.837,2.932,2.932,0,0,0,3.021,2.837" transform="translate(1075.359 606.057)" fill="#fff"/>
        <path id="Path_1731" data-name="Path 1731" d="M457.147,280.489a2.842,2.842,0,1,0-3.021-2.837,2.932,2.932,0,0,0,3.021,2.837" transform="translate(1096.175 606.057)" fill="#fff"/>
        <path id="Path_1732" data-name="Path 1732" d="M465.771,280.489a2.842,2.842,0,1,0-3.021-2.837,2.932,2.932,0,0,0,3.021,2.837" transform="translate(1116.992 606.057)" fill="#fff"/>
        <path id="Path_1733" data-name="Path 1733" d="M474.4,280.489a2.842,2.842,0,1,0-3.021-2.837,2.932,2.932,0,0,0,3.021,2.837" transform="translate(1137.808 606.057)" fill="#fff"/>
        <path id="Path_1734" data-name="Path 1734" d="M483.019,280.489A2.842,2.842,0,1,0,480,277.653a2.932,2.932,0,0,0,3.021,2.837" transform="translate(1158.625 606.057)" fill="#fff"/>
        <path id="Path_1735" data-name="Path 1735" d="M491.643,280.489a2.842,2.842,0,1,0-3.021-2.837,2.932,2.932,0,0,0,3.021,2.837" transform="translate(1179.442 606.057)" fill="#fff"/>
        <path id="Path_1736" data-name="Path 1736" d="M500.266,280.489a2.842,2.842,0,1,0-3.021-2.837,2.933,2.933,0,0,0,3.021,2.837" transform="translate(1200.256 606.057)" fill="#fff"/>
        <path id="Path_1737" data-name="Path 1737" d="M353.661,289.112a2.842,2.842,0,1,0-3.021-2.837,2.932,2.932,0,0,0,3.021,2.837" transform="translate(846.379 625.073)" fill="#fff"/>
        <path id="Path_1738" data-name="Path 1738" d="M362.285,289.112a2.842,2.842,0,1,0-3.021-2.837,2.932,2.932,0,0,0,3.021,2.837" transform="translate(867.196 625.073)" fill="#fff"/>
        <path id="Path_1739" data-name="Path 1739" d="M370.909,289.112a2.842,2.842,0,1,0-3.021-2.837,2.932,2.932,0,0,0,3.021,2.837" transform="translate(888.013 625.073)" fill="#fff"/>
        <path id="Path_1740" data-name="Path 1740" d="M379.532,289.112a2.842,2.842,0,1,0-3.021-2.837,2.932,2.932,0,0,0,3.021,2.837" transform="translate(908.827 625.073)" fill="#fff"/>
        <path id="Path_1741" data-name="Path 1741" d="M388.156,289.112a2.842,2.842,0,1,0-3.021-2.837,2.932,2.932,0,0,0,3.021,2.837" transform="translate(929.644 625.073)" fill="#fff"/>
        <path id="Path_1742" data-name="Path 1742" d="M396.78,289.112a2.842,2.842,0,1,0-3.021-2.837,2.932,2.932,0,0,0,3.021,2.837" transform="translate(950.461 625.073)" fill="#fff"/>
        <path id="Path_1743" data-name="Path 1743" d="M405.4,289.112a2.842,2.842,0,1,0-3.021-2.837,2.933,2.933,0,0,0,3.021,2.837" transform="translate(971.277 625.073)" fill="#fff"/>
        <path id="Path_1744" data-name="Path 1744" d="M414.028,289.112a2.842,2.842,0,1,0-3.021-2.837,2.932,2.932,0,0,0,3.021,2.837" transform="translate(992.094 625.073)" fill="#fff"/>
        <path id="Path_1745" data-name="Path 1745" d="M422.652,289.112a2.842,2.842,0,1,0-3.021-2.837,2.933,2.933,0,0,0,3.021,2.837" transform="translate(1012.911 625.073)" fill="#fff"/>
        <path id="Path_1746" data-name="Path 1746" d="M431.276,289.112a2.842,2.842,0,1,0-3.021-2.837,2.932,2.932,0,0,0,3.021,2.837" transform="translate(1033.728 625.073)" fill="#fff"/>
        <path id="Path_1747" data-name="Path 1747" d="M439.9,289.112a2.842,2.842,0,1,0-3.021-2.837,2.93,2.93,0,0,0,3.021,2.837" transform="translate(1054.542 625.073)" fill="#fff"/>
        <path id="Path_1748" data-name="Path 1748" d="M448.523,289.112a2.842,2.842,0,1,0-3.021-2.837,2.932,2.932,0,0,0,3.021,2.837" transform="translate(1075.359 625.073)" fill="#fff"/>
        <path id="Path_1749" data-name="Path 1749" d="M457.147,289.112a2.842,2.842,0,1,0-3.021-2.837,2.932,2.932,0,0,0,3.021,2.837" transform="translate(1096.175 625.073)" fill="#fff"/>
        <path id="Path_1750" data-name="Path 1750" d="M465.771,289.112a2.842,2.842,0,1,0-3.021-2.837,2.932,2.932,0,0,0,3.021,2.837" transform="translate(1116.992 625.073)" fill="#fff"/>
        <path id="Path_1751" data-name="Path 1751" d="M474.4,289.112a2.842,2.842,0,1,0-3.021-2.837,2.933,2.933,0,0,0,3.021,2.837" transform="translate(1137.808 625.073)" fill="#fff"/>
        <path id="Path_1752" data-name="Path 1752" d="M483.019,289.112A2.842,2.842,0,1,0,480,286.276a2.932,2.932,0,0,0,3.021,2.837" transform="translate(1158.625 625.073)" fill="#fff"/>
        <path id="Path_1753" data-name="Path 1753" d="M491.643,289.112a2.842,2.842,0,1,0-3.021-2.837,2.932,2.932,0,0,0,3.021,2.837" transform="translate(1179.442 625.073)" fill="#fff"/>
        <path id="Path_1754" data-name="Path 1754" d="M500.266,289.112a2.842,2.842,0,1,0-3.021-2.837,2.933,2.933,0,0,0,3.021,2.837" transform="translate(1200.256 625.073)" fill="#fff"/>
        <path id="Path_1755" data-name="Path 1755" d="M731.089,424.638a1.58,1.58,0,0,1,0-2.276,1.774,1.774,0,0,1,2.424,0,1.574,1.574,0,0,1,0,2.276,1.818,1.818,0,0,1-1.195.452,1.915,1.915,0,0,1-1.229-.452m-12.051-11.347a1.52,1.52,0,0,1,0-2.276,1.791,1.791,0,0,1,2.39,0,1.52,1.52,0,0,1,0,2.276,1.725,1.725,0,0,1-2.39,0m-12.081-11.347a1.528,1.528,0,0,1,0-2.241,1.761,1.761,0,0,1,2.424,0,1.539,1.539,0,0,1,0,2.241,1.767,1.767,0,0,1-2.424,0M694.9,390.632a1.52,1.52,0,0,1,0-2.276,1.789,1.789,0,0,1,2.393,0,1.525,1.525,0,0,1,0,2.276,1.738,1.738,0,0,1-2.393,0m-12.085-11.347a1.54,1.54,0,0,1,0-2.247,1.768,1.768,0,0,1,2.424,0,1.54,1.54,0,0,1,0,2.247,1.8,1.8,0,0,1-1.229.478,1.782,1.782,0,0,1-1.195-.478m-12.051-11.318a1.52,1.52,0,0,1,0-2.276,1.791,1.791,0,0,1,2.39,0,1.52,1.52,0,0,1,0,2.276,1.815,1.815,0,0,1-2.39,0m-12.085-11.347a1.542,1.542,0,0,1,0-2.244,1.768,1.768,0,0,1,2.424,0,1.537,1.537,0,0,1,0,2.244,1.759,1.759,0,0,1-2.424,0m-12.051-11.315a1.526,1.526,0,0,1,0-2.276,1.8,1.8,0,0,1,2.39,0,1.52,1.52,0,0,1,0,2.276,1.667,1.667,0,0,1-1.195.452,1.62,1.62,0,0,1-1.2-.452m-12.085-11.347a1.52,1.52,0,0,1,0-2.276,1.841,1.841,0,0,1,2.427,0,1.58,1.58,0,0,1,0,2.276,1.806,1.806,0,0,1-1.233.481,1.71,1.71,0,0,1-1.195-.481m-12.081-11.312a1.568,1.568,0,0,1,0-2.276,1.761,1.761,0,0,1,2.424,0,1.525,1.525,0,0,1,0,2.276,1.871,1.871,0,0,1-2.424,0M610.411,311.3a1.52,1.52,0,0,1,0-2.276,1.829,1.829,0,0,1,2.424,0,1.574,1.574,0,0,1,0,2.276,1.8,1.8,0,0,1-1.229.478,1.72,1.72,0,0,1-1.195-.478m-12.085-11.347a1.54,1.54,0,0,1,0-2.247,1.768,1.768,0,0,1,2.424,0,1.54,1.54,0,0,1,0,2.247,1.783,1.783,0,0,1-1.195.478,1.8,1.8,0,0,1-1.229-.478m-12.051-11.318a1.52,1.52,0,0,1,0-2.276,1.791,1.791,0,0,1,2.39,0,1.52,1.52,0,0,1,0,2.276,1.648,1.648,0,0,1-1.191.484,1.721,1.721,0,0,1-1.2-.484M574.19,277.289a1.542,1.542,0,0,1,0-2.244,1.768,1.768,0,0,1,2.424,0,1.537,1.537,0,0,1,0,2.244,1.759,1.759,0,0,1-2.424,0m-12.085-11.315a1.58,1.58,0,0,1,0-2.276,1.843,1.843,0,0,1,2.424,0,1.52,1.52,0,0,1,0,2.276,1.668,1.668,0,0,1-1.195.452,1.753,1.753,0,0,1-1.229-.452m-12.051-11.347a1.481,1.481,0,0,1,0-2.241,1.766,1.766,0,0,1,2.427,0,1.539,1.539,0,0,1,0,2.241,1.806,1.806,0,0,1-1.232.481,1.771,1.771,0,0,1-1.195-.481m-12.081-11.312a1.568,1.568,0,0,1,0-2.276,1.761,1.761,0,0,1,2.424,0,1.525,1.525,0,0,1,0,2.276,1.7,1.7,0,0,1-1.2.446,1.758,1.758,0,0,1-1.226-.446m-12.054-11.347a1.489,1.489,0,0,1,0-2.247,1.768,1.768,0,0,1,2.424,0,1.541,1.541,0,0,1,0,2.247,1.8,1.8,0,0,1-1.229.478,1.783,1.783,0,0,1-1.195-.478m-12.085-11.318a1.574,1.574,0,0,1,0-2.276,1.836,1.836,0,0,1,2.424,0,1.52,1.52,0,0,1,0,2.276,1.9,1.9,0,0,1-1.195.449,1.922,1.922,0,0,1-1.229-.449M501.783,209.3a1.52,1.52,0,0,1,0-2.276,1.836,1.836,0,0,1,2.424,0,1.574,1.574,0,0,1,0,2.276,1.786,1.786,0,0,1-1.226.484,1.657,1.657,0,0,1-1.2-.484M489.7,197.99a1.58,1.58,0,0,1,0-2.276,1.768,1.768,0,0,1,2.424,0,1.52,1.52,0,0,1,0,2.276,1.905,1.905,0,0,1-1.195.452,1.932,1.932,0,0,1-1.229-.452" transform="translate(1180.872 430.551)" fill="#fff"/>
        <path id="Path_1756" data-name="Path 1756" d="M332.684,286.916a2.008,2.008,0,0,1,0-3.01,2.43,2.43,0,0,1,3.206,0,2.083,2.083,0,0,1,0,3.01,2.368,2.368,0,0,1-1.628.635,2.235,2.235,0,0,1-1.577-.635m-15.99-14.969a2.077,2.077,0,0,1,0-3.01,2.435,2.435,0,0,1,3.209,0,2.013,2.013,0,0,1,0,3.01,2.467,2.467,0,0,1-3.209,0m-15.943-15.01a1.962,1.962,0,0,1,0-2.968,2.341,2.341,0,0,1,3.206,0,2.029,2.029,0,0,1,0,2.968,2.362,2.362,0,0,1-1.628.635,2.173,2.173,0,0,1-1.577-.635m-15.987-14.969a2.081,2.081,0,0,1,0-3.013,2.341,2.341,0,0,1,3.206,0,2.081,2.081,0,0,1,0,3.013,2.511,2.511,0,0,1-1.581.593,2.538,2.538,0,0,1-1.625-.593m-15.99-15.014a2.077,2.077,0,0,1,0-3.01,2.435,2.435,0,0,1,3.209,0,2.013,2.013,0,0,1,0,3.01,2.178,2.178,0,0,1-1.581.638,2.365,2.365,0,0,1-1.628-.638m-15.943-15.007a2.039,2.039,0,0,1,0-2.971,2.335,2.335,0,0,1,3.206,0,2.033,2.033,0,0,1,0,2.971,2.341,2.341,0,0,1-3.206,0m-15.939-14.972a2.008,2.008,0,0,1,0-3.01,2.367,2.367,0,0,1,3.158,0,2.008,2.008,0,0,1,0,3.01,2.273,2.273,0,0,1-3.158,0m-15.987-15.011a1.962,1.962,0,0,1,0-2.968,2.335,2.335,0,0,1,3.206,0,2.04,2.04,0,0,1,0,2.968,2.383,2.383,0,0,1-1.628.635,2.328,2.328,0,0,1-1.577-.635M204.915,167a2.078,2.078,0,0,1,0-3.01,2.43,2.43,0,0,1,3.206,0,2.008,2.008,0,0,1,0,3.01,2.219,2.219,0,0,1-1.581.593,2.314,2.314,0,0,1-1.625-.593m-15.943-15.011a2.077,2.077,0,0,1,0-3.01,2.365,2.365,0,0,1,3.161,0,2.008,2.008,0,0,1,0,3.01,2.2,2.2,0,0,1-1.584.635,2.255,2.255,0,0,1-1.577-.635m-15.99-14.969a2.087,2.087,0,0,1,0-3.013,2.435,2.435,0,0,1,3.209,0,2.081,2.081,0,0,1,0,3.013,2.263,2.263,0,0,1-1.581.635,2.377,2.377,0,0,1-1.628-.635M157.04,122a1.959,1.959,0,0,1,0-2.965,2.335,2.335,0,0,1,3.206,0,2.026,2.026,0,0,1,0,2.965,2.343,2.343,0,0,1-1.622.638A2.186,2.186,0,0,1,157.04,122m-15.987-14.969a2.083,2.083,0,0,1,0-3.01,2.335,2.335,0,0,1,3.206,0,2.077,2.077,0,0,1,0,3.01,2.515,2.515,0,0,1-1.581.6,2.555,2.555,0,0,1-1.625-.6m-15.99-15.011a2.089,2.089,0,0,1,0-3.01,2.435,2.435,0,0,1,3.209,0,2.008,2.008,0,0,1,0,3.01,2.175,2.175,0,0,1-1.581.635,2.374,2.374,0,0,1-1.628-.635M109.124,77.013a2.029,2.029,0,0,1,0-2.968,2.339,2.339,0,0,1,3.209,0,2.04,2.04,0,0,1,0,2.968,2.383,2.383,0,0,1-1.628.635,2.343,2.343,0,0,1-1.581-.635M93.181,62.044a2.008,2.008,0,0,1,0-3.01,2.365,2.365,0,0,1,3.161,0,2.008,2.008,0,0,1,0,3.01,2.286,2.286,0,0,1-3.161,0M77.194,47.075a2.012,2.012,0,0,1,0-3.013,2.341,2.341,0,0,1,3.206,0,2.081,2.081,0,0,1,0,3.013,2.547,2.547,0,0,1-1.628.593,2.5,2.5,0,0,1-1.577-.593M61.2,32.061a2.078,2.078,0,0,1,0-3.01,2.435,2.435,0,0,1,3.209,0,2.013,2.013,0,0,1,0,3.01,2.211,2.211,0,0,1-1.581.6,2.325,2.325,0,0,1-1.628-.6M45.261,17.051a2.035,2.035,0,0,1,0-2.968,2.341,2.341,0,0,1,3.206,0,2.029,2.029,0,0,1,0,2.968,2.349,2.349,0,0,1-1.622.638,2.266,2.266,0,0,1-1.584-.638" transform="translate(107.701 29.657)" fill="#fff"/>
        <path id="Path_1757" data-name="Path 1757" d="M105.372,311.836a1.773,1.773,0,0,1-1.208-.468L74.832,283.824a1.53,1.53,0,0,1,0-2.266,1.781,1.781,0,0,1,2.414,0L106.58,309.1a1.539,1.539,0,0,1,0,2.269,1.773,1.773,0,0,1-1.208.468" transform="translate(179.419 619.886)" fill="#fff"/>
        <path id="Path_1758" data-name="Path 1758" d="M76.038,311.836a1.774,1.774,0,0,1-1.209-.468,1.539,1.539,0,0,1,0-2.269l29.335-27.54a1.781,1.781,0,0,1,2.414,0,1.53,1.53,0,0,1,0,2.266L77.246,311.368a1.774,1.774,0,0,1-1.208.468" transform="translate(179.418 619.886)" fill="#fff"/>
        <path id="Path_1759" data-name="Path 1759" d="M494.423,154.337a1.759,1.759,0,0,1-1.205-.468l-29.335-27.543a1.53,1.53,0,0,1,0-2.266,1.781,1.781,0,0,1,2.413,0l29.335,27.54a1.539,1.539,0,0,1,0,2.269,1.773,1.773,0,0,1-1.208.468" transform="translate(1118.515 272.551)" fill="#fff"/>
        <path id="Path_1760" data-name="Path 1760" d="M465.088,154.337a1.759,1.759,0,0,1-1.2-.468,1.534,1.534,0,0,1,0-2.269l29.331-27.54a1.781,1.781,0,0,1,2.413,0,1.53,1.53,0,0,1,0,2.266L466.3,153.869a1.774,1.774,0,0,1-1.208.468" transform="translate(1118.515 272.551)" fill="#fff"/>
        <path id="Path_1761" data-name="Path 1761" d="M99.2,113.909c-8.784,0-15.932-6.709-15.932-14.956S90.421,83.994,99.2,83.994s15.929,6.712,15.929,14.959-7.145,14.956-15.929,14.956m0-26.71c-6.9,0-12.518,5.273-12.518,11.754S92.3,110.7,99.2,110.7s12.515-5.273,12.515-11.751S106.107,87.2,99.2,87.2" transform="translate(201.003 185.234)" fill="#00cdc0"/>
        <path id="Path_1762" data-name="Path 1762" d="M503.386,257.483c-8.784,0-15.929-6.712-15.929-14.959s7.145-14.959,15.929-14.959,15.932,6.712,15.932,14.959-7.148,14.959-15.932,14.959m0-26.713c-6.9,0-12.515,5.273-12.515,11.754s5.616,11.754,12.515,11.754,12.518-5.273,12.518-11.754-5.616-11.754-12.518-11.754" transform="translate(1176.63 501.853)" fill="#00cdc0"/>
        <path id="Path_1763" data-name="Path 1763" d="M45.144,224.483a3.157,3.157,0,1,1,3.151,2.959,3.054,3.054,0,0,1-3.151-2.959m0-23.671a3.157,3.157,0,1,1,3.151,2.959,3.054,3.054,0,0,1-3.151-2.959m0-23.668a3.157,3.157,0,1,1,3.151,2.958,3.054,3.054,0,0,1-3.151-2.958m0-23.671a3.157,3.157,0,1,1,3.151,2.959,3.054,3.054,0,0,1-3.151-2.959" transform="translate(108.969 331.931)" fill="#fff"/>
      </g>
    </g>
  </g>
</svg>
