<svg xmlns="http://www.w3.org/2000/svg" width="1920.157" height="1079.505" viewBox="0 0 1920.157 1079.505">
  <g id="Group_1172" data-name="Group 1172" transform="translate(0 0)">
    <path id="Path_1458" data-name="Path 1458" d="M0,0H1920V1079.5H0Z" fill="#54e6e6"/>
    <g id="Group_1052" data-name="Group 1052" transform="translate(-0.001 -38.183)" opacity="0.318" style="mix-blend-mode: lighten;isolation: isolate">
      <g id="Group_1094" data-name="Group 1094" transform="translate(0.001 38.182)">
        <path id="Path_1599" data-name="Path 1599" d="M1059.848,881.941a1.824,1.824,0,0,1,.372-2.467,1.678,1.678,0,0,1,2.393.423,1.786,1.786,0,0,1-.375,2.436,1.556,1.556,0,0,1-.99.349,1.714,1.714,0,0,1-1.4-.74m19.73-19.349a1.78,1.78,0,0,1-.338-2.464,1.687,1.687,0,0,1,2.39-.356,1.821,1.821,0,0,1,.338,2.467,1.709,1.709,0,0,1-1.362.708,1.657,1.657,0,0,1-1.028-.356m13.284-24.53a1.748,1.748,0,0,1,1.126-3.31,1.824,1.824,0,0,1,1.059,2.252,1.778,1.778,0,0,1-1.639,1.163,1.491,1.491,0,0,1-.546-.106m5.292-27.526a1.764,1.764,0,0,1,.031-3.525,1.772,1.772,0,0,1,1.707,1.8,1.728,1.728,0,0,1-1.707,1.727Zm-6.081-28.827a1.76,1.76,0,0,1,1.062-2.259,1.681,1.681,0,0,1,2.151,1.1,1.779,1.779,0,0,1-1.062,2.252,2.541,2.541,0,0,1-.543.074,1.71,1.71,0,0,1-1.608-1.163m-12.56-24.322h0a1.828,1.828,0,0,1,.338-2.467,1.662,1.662,0,0,1,2.393.356,1.786,1.786,0,0,1-.341,2.464,1.585,1.585,0,0,1-1.024.352,1.707,1.707,0,0,1-1.366-.7m-19.02-19.349a1.824,1.824,0,0,1-.372-2.464,1.691,1.691,0,0,1,2.387-.391,1.822,1.822,0,0,1,.379,2.471,1.708,1.708,0,0,1-1.366.7,1.752,1.752,0,0,1-1.028-.317M928.406,726.2a1.764,1.764,0,0,1-1.536-1.942,1.707,1.707,0,0,1,1.874-1.583,1.735,1.735,0,0,1,1.506,1.935,1.7,1.7,0,0,1-1.673,1.589Zm25.742-1.73a1.7,1.7,0,1,1,3.377-.282,1.748,1.748,0,0,1-1.533,1.9h-.137a1.732,1.732,0,0,1-1.707-1.621M1036.7,725.7a1.739,1.739,0,0,1-1.127-2.185,1.694,1.694,0,0,1,2.117-1.159,1.767,1.767,0,0,1-.478,3.45,1.247,1.247,0,0,1-.512-.106m-55.411-4.124a1.758,1.758,0,0,1,1.533-1.9,1.714,1.714,0,0,1,1.881,1.554,1.738,1.738,0,0,1-1.536,1.935H983a1.752,1.752,0,0,1-1.707-1.586m28.951.141a1.746,1.746,0,0,1-1.676-1.8,1.7,1.7,0,0,1,1.745-1.727,1.764,1.764,0,0,1-.038,3.525ZM901.4,719.675a1.826,1.826,0,0,1-.956-2.287,1.666,1.666,0,0,1,2.219-.99,1.75,1.75,0,0,1,.956,2.295,1.676,1.676,0,0,1-1.574,1.089,1.963,1.963,0,0,1-.645-.106m-23.182-15.86h-.034a1.853,1.853,0,0,1,.1-2.5,1.658,1.658,0,0,1,2.424.106,1.816,1.816,0,0,1-.1,2.5,1.874,1.874,0,0,1-1.161.458,1.668,1.668,0,0,1-1.229-.564m-12.257-25.87a1.757,1.757,0,0,1,1.362-2.044,1.714,1.714,0,0,1,1.98,1.445,1.747,1.747,0,0,1-1.362,2.044h-.307a1.7,1.7,0,0,1-1.673-1.445m2.561-26.575a1.761,1.761,0,0,1-1.335-2.079,1.742,1.742,0,0,1,2.052-1.371,1.782,1.782,0,0,1,1.3,2.111,1.724,1.724,0,0,1-1.673,1.375,1.115,1.115,0,0,1-.341-.035m7.3-27.174a1.769,1.769,0,0,1-1.123-2.185,1.718,1.718,0,0,1,2.147-1.163,1.775,1.775,0,0,1-.509,3.458,1.294,1.294,0,0,1-.516-.109m7.412-27.1a1.786,1.786,0,0,1-1.366-2.083,1.722,1.722,0,0,1,2.014-1.406,1.783,1.783,0,0,1,1.328,2.076,1.669,1.669,0,0,1-1.673,1.413Zm-.307-29.574h0a1.7,1.7,0,1,1,1.912,1.519.658.658,0,0,1-.239.035,1.719,1.719,0,0,1-1.673-1.554M452.721,554.764a1.793,1.793,0,0,1-1.642-1.829,1.748,1.748,0,0,1,1.813-1.7,1.767,1.767,0,0,1-.106,3.525Zm25.671-2.361a1.746,1.746,0,0,1,1.54-1.938,1.683,1.683,0,0,1,1.844,1.59,1.758,1.758,0,0,1-1.54,1.935H480.1a1.735,1.735,0,0,1-1.707-1.586m-53.017-.983a1.747,1.747,0,0,1-1.332-2.083,1.66,1.66,0,0,1,1.98-1.375,1.767,1.767,0,0,1-.307,3.493c-.137,0-.242-.035-.341-.035m79.992-3.317a1.767,1.767,0,0,1,1.3-2.111,1.708,1.708,0,0,1,2.045,1.339,1.816,1.816,0,0,1-1.328,2.111,1.272,1.272,0,0,1-.379.035,1.719,1.719,0,0,1-1.635-1.375m-106.489-4.578a1.78,1.78,0,0,1-.953-2.294,1.666,1.666,0,0,1,2.185-1.022,1.811,1.811,0,0,1,.99,2.294,1.73,1.73,0,0,1-1.6,1.124,2.008,2.008,0,0,1-.618-.1m132.876-2.576a1.833,1.833,0,0,1,1.127-2.22,1.718,1.718,0,0,1,2.151,1.163,1.809,1.809,0,0,1-1.123,2.22,2.593,2.593,0,0,1-.512.074,1.771,1.771,0,0,1-1.642-1.237m343.7.141h-.038a1.8,1.8,0,0,1,.854-2.326,1.7,1.7,0,0,1,2.287.846h-.031a1.8,1.8,0,0,1-.823,2.361,1.714,1.714,0,0,1-.717.141,1.669,1.669,0,0,1-1.533-1.022m-317.852-9.3a1.742,1.742,0,0,1,.99-2.259,1.65,1.65,0,0,1,2.182,1.022,1.762,1.762,0,0,1-.99,2.259,1.61,1.61,0,0,1-.58.106,1.661,1.661,0,0,1-1.6-1.128m-183.268-1.308a1.772,1.772,0,0,1-.481-2.432,1.678,1.678,0,0,1,2.359-.525,1.823,1.823,0,0,1,.475,2.467,1.688,1.688,0,0,1-2.352.49m208.632-9.16a1.763,1.763,0,0,1,.925-2.294,1.661,1.661,0,0,1,2.219.952,1.756,1.756,0,0,1-.922,2.291,1.4,1.4,0,0,1-.652.141,1.708,1.708,0,0,1-1.57-1.089m278.112-3.563a1.8,1.8,0,0,1,.242-2.5,1.685,1.685,0,0,1,2.39.247,1.754,1.754,0,0,1-.242,2.471,1.573,1.573,0,0,1-1.089.423,1.676,1.676,0,0,1-1.3-.638m-507.808-5.78a1.786,1.786,0,0,1,.1-2.5,1.656,1.656,0,0,1,2.393.141,1.747,1.747,0,0,1-.1,2.471,1.582,1.582,0,0,1-1.164.458,1.556,1.556,0,0,1-1.226-.568M608.1,510.25a1.776,1.776,0,0,1,.884-2.326,1.67,1.67,0,0,1,2.223.955,1.733,1.733,0,0,1-.888,2.287,1.488,1.488,0,0,1-.683.141,1.65,1.65,0,0,1-1.536-1.057m25.128-11.032a1.782,1.782,0,0,1,.922-2.326,1.7,1.7,0,0,1,2.219.987,1.793,1.793,0,0,1-.925,2.294,2.212,2.212,0,0,1-.645.141,1.7,1.7,0,0,1-1.571-1.1m208.532-.772a1.788,1.788,0,0,1-.311-2.471,1.662,1.662,0,0,1,2.39-.314,1.779,1.779,0,0,1,.307,2.467,1.625,1.625,0,0,1-2.387.317M658.621,488.9a1.764,1.764,0,0,1,1.024-2.259,1.7,1.7,0,0,1,2.188,1.022,1.819,1.819,0,0,1-1.024,2.291,1.673,1.673,0,0,1-2.188-1.054m-321.334-.25a1.824,1.824,0,0,1,.717-2.393,1.7,1.7,0,0,1,2.325.74,1.782,1.782,0,0,1-.717,2.358,1.514,1.514,0,0,1-.785.211,1.722,1.722,0,0,1-1.54-.916m481.629-4.9a1.8,1.8,0,0,1-.823-2.361,1.686,1.686,0,0,1,2.287-.814,1.79,1.79,0,0,1,.789,2.361,1.63,1.63,0,0,1-1.506.987,1.382,1.382,0,0,1-.748-.173m-134.382-3.775a1.753,1.753,0,0,1,1.164-2.185,1.7,1.7,0,0,1,2.113,1.2,1.786,1.786,0,0,1-1.161,2.185,2.182,2.182,0,0,1-.475.074,1.7,1.7,0,0,1-1.642-1.272m26.5-6.873a1.71,1.71,0,1,1,3.346-.7,1.776,1.776,0,0,1-1.366,2.083.93.93,0,0,1-.311.035,1.7,1.7,0,0,1-1.669-1.413m82.587,1.237a1.736,1.736,0,0,1-1.267-2.118,1.7,1.7,0,0,1,2.052-1.3,1.776,1.776,0,0,1-.41,3.489,1.306,1.306,0,0,1-.376-.067m-55.581-5.4a1.7,1.7,0,0,1,1.57-1.868,1.678,1.678,0,0,1,1.806,1.621,1.716,1.716,0,0,1-1.567,1.868c-.034.035-.068.035-.14.035a1.73,1.73,0,0,1-1.669-1.656m28.883,1.339a1.75,1.75,0,0,1-1.608-1.868,1.72,1.72,0,0,1,1.813-1.656,1.772,1.772,0,0,1,1.6,1.872,1.734,1.734,0,0,1-1.707,1.653Zm-439.769-8.138a1.765,1.765,0,0,1,1.195-2.185,1.727,1.727,0,0,1,2.083,1.23,1.793,1.793,0,0,1-1.195,2.185,1.888,1.888,0,0,1-.444.035,1.686,1.686,0,0,1-1.639-1.265m-4.954-28.02h.038a1.7,1.7,0,1,1,1.844,1.586H323.9a1.757,1.757,0,0,1-1.707-1.586m.58-26.575a1.726,1.726,0,1,1,.038,0Zm1.127-28.164a1.763,1.763,0,1,1,.106,0Zm2.287-28.122a1.744,1.744,0,0,1-1.57-1.9,1.715,1.715,0,1,1,1.707,1.9Zm2.424-28.094a1.724,1.724,0,0,1-1.57-1.865,1.7,1.7,0,0,1,1.844-1.621,1.739,1.739,0,0,1,1.57,1.864,1.764,1.764,0,0,1-1.707,1.66.2.2,0,0,1-.137-.039m1.642-28.122a1.755,1.755,0,0,1-1.673-1.836,1.708,1.708,0,1,1,3.414.106,1.758,1.758,0,0,1-1.707,1.73Zm-2.086-29.817h0a1.712,1.712,0,1,1,3.414-.25,1.75,1.75,0,0,1-1.6,1.872h-.137a1.687,1.687,0,0,1-1.676-1.621m-3.615-27.671a1.827,1.827,0,0,1,1.331-2.115,1.765,1.765,0,0,1,.714,3.454,1.217,1.217,0,0,1-.372.039,1.727,1.727,0,0,1-1.673-1.378m-7.989-26.536v-.039a1.762,1.762,0,0,1,.888-2.287,1.646,1.646,0,0,1,2.219.913h.034a1.788,1.788,0,0,1-.925,2.33,1.417,1.417,0,0,1-.645.141,1.675,1.675,0,0,1-1.57-1.057m-13.213-24.181h0a1.8,1.8,0,0,1,.372-2.467,1.7,1.7,0,0,1,2.39.391,1.867,1.867,0,0,1-.372,2.5,1.8,1.8,0,0,1-1.028.314,1.654,1.654,0,0,1-1.362-.74M285.26,166.332a1.815,1.815,0,0,1-.137-2.5,1.672,1.672,0,0,1,2.386-.141,1.82,1.82,0,0,1,.174,2.5,1.745,1.745,0,0,1-1.3.6,1.7,1.7,0,0,1-1.127-.458m-285.145-.7a1.784,1.784,0,0,1,.99-2.287,1.668,1.668,0,0,1,2.182,1.022,1.729,1.729,0,0,1-.987,2.252v.035a1.569,1.569,0,0,1-.584.106,1.661,1.661,0,0,1-1.6-1.128m25.537-9.971a1.752,1.752,0,0,1,1.024-2.259,1.646,1.646,0,0,1,2.185,1.057,1.823,1.823,0,0,1-1.024,2.259,1.637,1.637,0,0,1-.58.1,1.766,1.766,0,0,1-1.6-1.16m237.825-5.71a1.811,1.811,0,0,1-.584-2.435,1.692,1.692,0,0,1,2.325-.6,1.82,1.82,0,0,1,.615,2.435,1.725,1.725,0,0,1-1.468.842,1.6,1.6,0,0,1-.888-.243M51.357,146.172a1.831,1.831,0,0,1,1.1-2.252,1.671,1.671,0,0,1,2.151,1.124,1.761,1.761,0,0,1-1.058,2.22,1.666,1.666,0,0,1-.546.106,1.776,1.776,0,0,1-1.642-1.2m26.053-8.561a1.729,1.729,0,0,1,1.161-2.185,1.689,1.689,0,0,1,2.117,1.195,1.826,1.826,0,0,1-1.164,2.189v-.035a1.242,1.242,0,0,1-.475.067,1.694,1.694,0,0,1-1.639-1.23m161.794.1a1.794,1.794,0,0,1-.956-2.287,1.658,1.658,0,0,1,2.219-.99,1.763,1.763,0,0,1-.649,3.384,1.776,1.776,0,0,1-.615-.106m-135.372-7.26a1.727,1.727,0,0,1,1.267-2.111h.031a1.7,1.7,0,0,1,2.018,1.339,1.79,1.79,0,0,1-1.3,2.111c-.1,0-.236.035-.372.035a1.692,1.692,0,0,1-1.642-1.375m109.527-1.022h.031a1.777,1.777,0,0,1-1.3-2.111,1.684,1.684,0,0,1,2.052-1.3,1.727,1.727,0,0,1,1.263,2.111,1.689,1.689,0,0,1-1.639,1.339,1.612,1.612,0,0,1-.41-.035m-82.689-4.194a1.738,1.738,0,0,1,1.434-1.974,1.719,1.719,0,0,1,1.946,1.516,1.793,1.793,0,0,1-1.471,1.977c-.065,0-.137.032-.236.032a1.709,1.709,0,0,1-1.673-1.551m55.991-.243h0a1.743,1.743,0,0,1-1.536-1.938,1.7,1.7,0,1,1,1.669,1.938Zm-28.849-2.4a1.752,1.752,0,0,1,1.669-1.833,1.764,1.764,0,0,1,.106,3.524h-.068a1.745,1.745,0,0,1-1.707-1.692" transform="translate(0 196.824)" fill="#00d4ab"/>
        <path id="Path_1601" data-name="Path 1601" d="M941.781,710.86c-70.566-2.922-136.758-46.851-168.635-111.916-9.355-19.1-15.79-39.777-22.011-59.775-4.572-14.69-9.3-29.877-15.135-44.285-9.553-23.558-31.372-64.886-70.19-77.066-41.771-13.1-85.383,11.571-123.853,33.345l-5.883,3.324c-39.467,22.243-94.625,42.47-133.255,12.533C370.628,442.077,368.866,400.6,367.006,356.7c-1.089-25.739-2.216-52.353-9.983-75.5-22.861-68.135-102.163-96.662-165.146-88.93-68.4,8.417-129.619,48.973-183.634,84.757L6.4,274.054c54.328-35.988,115.9-76.777,185.071-85.285,64.332-7.909,145.334,21.39,168.782,91.27,7.927,23.639,9.068,50.513,10.167,76.5,1.83,43.051,3.554,83.72,34.448,107.666,37.183,28.8,90.985,8.934,129.575-12.812l5.876-3.324c39.064-22.109,83.338-47.158,126.489-33.627,29.761,9.34,55.452,37.423,72.341,79.075,5.9,14.549,10.649,29.814,15.241,44.57,6.183,19.867,12.574,40.412,21.809,59.264,30.843,62.954,97.441,107.155,165.727,109.981Z" transform="translate(15.44 365.339)" fill="#fff"/>
        <path id="Path_1602" data-name="Path 1602" d="M1068.843,444.5a154.491,154.491,0,0,1-42.86-6.15c-40.1-11.588-73.178-38.114-90.76-72.766-6.849-13.5-11.844-28.344-16.681-42.692-8.716-25.873-16.951-50.308-35.165-68.4-47.07-46.745-127-17.936-170.462,3.4l-3.67,1.8c-54.977,27.019-117.284,57.625-172.411,31.29-51.061-24.393-70.429-86.547-87.52-141.388-1.717-5.509-3.417-10.972-5.135-16.35C424.451,71.477,382.427,7.952,323.5,14.885l-.389-3.5c60.965-7.218,104.164,57.671,124.31,120.756,1.721,5.385,3.424,10.855,5.145,16.371,17.7,56.8,36,115.529,85.7,139.27,53.676,25.651,115.215-4.585,169.51-31.269l3.67-1.8c44.25-21.725,125.748-50.974,174.3-2.756,18.8,18.673,27.555,44.655,36.022,69.781,4.793,14.228,9.754,28.943,16.487,42.213,17.145,33.8,49.456,59.68,88.654,71.008s79.832,6.534,111.484-13.167l1.762,3.02c-20.915,13.012-45.639,19.691-71.307,19.691" transform="translate(780.008 -10.834)" fill="#fff"/>
        <path id="Path_1603" data-name="Path 1603" d="M171.288,159.668a2.02,2.02,0,1,1-2.018-2.083,2.054,2.054,0,0,1,2.018,2.083" transform="translate(403.753 328.09)" fill="#00cdc0"/>
        <path id="Path_1604" data-name="Path 1604" d="M121.134,166.788a2.02,2.02,0,1,1-2.021-2.083,2.054,2.054,0,0,1,2.021,2.083" transform="translate(282.677 344.533)" fill="#00cdc0"/>
        <path id="Path_1605" data-name="Path 1605" d="M192.751,162.433a2.02,2.02,0,1,1-2.018-2.083,2.054,2.054,0,0,1,2.018,2.083" transform="translate(455.566 334.475)" fill="#00cdc0"/>
        <path id="Path_1606" data-name="Path 1606" d="M160.788,111.8a2.02,2.02,0,1,1-2.021-2.083,2.054,2.054,0,0,1,2.021,2.083" transform="translate(378.405 217.538)" fill="#00cdc0"/>
        <path id="Path_1607" data-name="Path 1607" d="M132.8,171.573a2.021,2.021,0,1,1-2.021-2.086,2.051,2.051,0,0,1,2.021,2.086" transform="translate(310.842 355.577)" fill="#00cdc0"/>
        <path id="Path_1608" data-name="Path 1608" d="M133.064,181.148a2.02,2.02,0,1,1-2.021-2.083,2.054,2.054,0,0,1,2.021,2.083" transform="translate(311.477 377.698)" fill="#00cdc0"/>
        <path id="Path_1609" data-name="Path 1609" d="M156.195,154.4a2.021,2.021,0,1,1-2.021-2.086,2.051,2.051,0,0,1,2.021,2.086" transform="translate(367.317 315.905)" fill="#00cdc0"/>
        <path id="Path_1610" data-name="Path 1610" d="M174.478,166.816a2.02,2.02,0,1,1-2.018-2.083,2.054,2.054,0,0,1,2.018,2.083" transform="translate(411.454 344.598)" fill="#00cdc0"/>
        <path id="Path_1611" data-name="Path 1611" d="M176.488,153.265a2.021,2.021,0,1,1-2.018-2.087,2.051,2.051,0,0,1,2.018,2.087" transform="translate(416.306 313.293)" fill="#00cdc0"/>
        <path id="Path_1612" data-name="Path 1612" d="M185.408,151.1a2.02,2.02,0,1,1-2.021-2.083,2.051,2.051,0,0,1,2.021,2.083" transform="translate(437.84 308.297)" fill="#00cdc0"/>
        <path id="Path_1613" data-name="Path 1613" d="M180.667,128.644a2.02,2.02,0,1,1-2.021-2.083,2.054,2.054,0,0,1,2.021,2.083" transform="translate(426.395 256.44)" fill="#00cdc0"/>
        <path id="Path_1614" data-name="Path 1614" d="M127.195,164.5a2.019,2.019,0,1,1-2.021-2.087,2.054,2.054,0,0,1,2.021,2.087" transform="translate(297.316 339.244)" fill="#00cdc0"/>
        <path id="Path_1616" data-name="Path 1616" d="M168.263,114.585a2.021,2.021,0,1,1-2.018-2.086,2.051,2.051,0,0,1,2.018,2.086" transform="translate(396.45 223.961)" fill="#00cdc0"/>
        <path id="Path_1617" data-name="Path 1617" d="M118.951,157.707a2.021,2.021,0,1,1-2.018-2.086,2.051,2.051,0,0,1,2.018,2.086" transform="translate(277.407 323.554)" fill="#00cdc0"/>
        <path id="Path_1618" data-name="Path 1618" d="M175.91,116.251a2.021,2.021,0,1,1-2.018-2.086,2.051,2.051,0,0,1,2.018,2.086" transform="translate(414.911 227.811)" fill="#00cdc0"/>
        <path id="Path_1619" data-name="Path 1619" d="M140.992,146.408a2.02,2.02,0,1,1-2.021-2.083,2.054,2.054,0,0,1,2.021,2.083" transform="translate(330.616 297.466)" fill="#00cdc0"/>
        <path id="Path_1620" data-name="Path 1620" d="M126.785,155.61a2.021,2.021,0,1,1-2.021-2.086,2.051,2.051,0,0,1,2.021,2.086" transform="translate(296.319 318.711)" fill="#00cdc0"/>
        <path id="Path_1621" data-name="Path 1621" d="M151.514,160.692a2.02,2.02,0,1,1-2.021-2.083,2.051,2.051,0,0,1,2.021,2.083" transform="translate(356.017 330.455)" fill="#00cdc0"/>
        <path id="Path_1622" data-name="Path 1622" d="M133.163,119.578a2.02,2.02,0,1,1-2.021-2.083,2.054,2.054,0,0,1,2.021,2.083" transform="translate(311.716 235.502)" fill="#00cdc0"/>
        <path id="Path_1623" data-name="Path 1623" d="M148.154,167.821a2.02,2.02,0,1,1-2.021-2.083,2.054,2.054,0,0,1,2.021,2.083" transform="translate(347.905 346.919)" fill="#00cdc0"/>
        <path id="Path_1624" data-name="Path 1624" d="M162.895,132.3a2.02,2.02,0,1,1-2.018-2.083,2.054,2.054,0,0,1,2.018,2.083" transform="translate(383.491 264.879)" fill="#00cdc0"/>
        <path id="Path_1625" data-name="Path 1625" d="M183.289,159.881a2.02,2.02,0,1,1-2.018-2.086,2.051,2.051,0,0,1,2.018,2.086" transform="translate(432.724 328.575)" fill="#00cdc0"/>
        <path id="Path_1626" data-name="Path 1626" d="M186.72,143.053a2.02,2.02,0,1,1-2.021-2.083,2.054,2.054,0,0,1,2.021,2.083" transform="translate(441.007 289.717)" fill="#00cdc0"/>
        <path id="Path_1627" data-name="Path 1627" d="M125.331,127.981a2.021,2.021,0,1,1-2.021-2.086,2.054,2.054,0,0,1,2.021,2.086" transform="translate(292.809 254.901)" fill="#00cdc0"/>
        <path id="Path_1628" data-name="Path 1628" d="M135.141,152.887a2.02,2.02,0,1,1-2.021-2.083,2.054,2.054,0,0,1,2.021,2.083" transform="translate(316.491 312.429)" fill="#00cdc0"/>
        <path id="Path_1629" data-name="Path 1629" d="M157.281,167.83a2.02,2.02,0,1,1-2.018-2.083,2.054,2.054,0,0,1,2.018,2.083" transform="translate(369.939 346.94)" fill="#00cdc0"/>
        <path id="Path_1630" data-name="Path 1630" d="M142.521,122.465a2.02,2.02,0,1,1-2.021-2.083,2.054,2.054,0,0,1,2.021,2.083" transform="translate(334.307 242.169)" fill="#00cdc0"/>
        <path id="Path_1631" data-name="Path 1631" d="M164.56,152.664a2.02,2.02,0,1,1-2.018-2.083,2.054,2.054,0,0,1,2.018,2.083" transform="translate(387.511 311.914)" fill="#00cdc0"/>
        <path id="Path_1632" data-name="Path 1632" d="M154.716,136.325a2.021,2.021,0,1,1-2.021-2.086,2.054,2.054,0,0,1,2.021,2.086" transform="translate(363.746 274.172)" fill="#00cdc0"/>
        <path id="Path_1633" data-name="Path 1633" d="M152.243,111.832a2.02,2.02,0,1,1-2.021-2.086,2.051,2.051,0,0,1,2.021,2.086" transform="translate(357.776 217.605)" fill="#00cdc0"/>
        <path id="Path_1634" data-name="Path 1634" d="M162.051,160.911a2.02,2.02,0,1,1-2.021-2.083,2.054,2.054,0,0,1,2.021,2.083" transform="translate(381.454 330.96)" fill="#00cdc0"/>
        <path id="Path_1635" data-name="Path 1635" d="M154.2,127.857a2.02,2.02,0,1,1-2.018-2.083,2.054,2.054,0,0,1,2.018,2.083" transform="translate(362.506 254.622)" fill="#00cdc0"/>
        <path id="Path_1636" data-name="Path 1636" d="M194.939,145.66a2.02,2.02,0,1,1-2.018-2.083,2.054,2.054,0,0,1,2.018,2.083" transform="translate(460.848 295.738)" fill="#00cdc0"/>
        <path id="Path_1638" data-name="Path 1638" d="M133.088,143.177a2.02,2.02,0,1,1-2.021-2.083,2.054,2.054,0,0,1,2.021,2.083" transform="translate(311.535 290.004)" fill="#00cdc0"/>
        <path id="Path_1639" data-name="Path 1639" d="M139.738,178.546a2.02,2.02,0,1,1-2.018-2.083,2.054,2.054,0,0,1,2.018,2.083" transform="translate(327.588 371.689)" fill="#00cdc0"/>
        <path id="Path_1640" data-name="Path 1640" d="M181.756,168.446a2.021,2.021,0,1,1-2.021-2.086,2.051,2.051,0,0,1,2.021,2.086" transform="translate(429.023 348.356)" fill="#00cdc0"/>
        <path id="Path_1641" data-name="Path 1641" d="M139.575,136.821a2.02,2.02,0,1,1-2.018-2.083,2.054,2.054,0,0,1,2.018,2.083" transform="translate(327.195 275.324)" fill="#00cdc0"/>
        <path id="Path_1642" data-name="Path 1642" d="M167.016,125.2A2.021,2.021,0,1,1,165,123.114a2.051,2.051,0,0,1,2.018,2.087" transform="translate(393.44 248.479)" fill="#00cdc0"/>
        <path id="Path_1645" data-name="Path 1645" d="M118.187,148.072a2.02,2.02,0,1,1-2.018-2.083,2.054,2.054,0,0,1,2.018,2.083" transform="translate(275.562 301.309)" fill="#00cdc0"/>
        <path id="Path_1646" data-name="Path 1646" d="M141.816,161.9a2.021,2.021,0,1,1-2.021-2.086,2.051,2.051,0,0,1,2.021,2.086" transform="translate(332.605 333.242)" fill="#00cdc0"/>
        <path id="Path_1647" data-name="Path 1647" d="M147.837,140.548a2.02,2.02,0,1,1-2.021-2.083,2.054,2.054,0,0,1,2.021,2.083" transform="translate(347.14 283.932)" fill="#00cdc0"/>
        <path id="Path_1648" data-name="Path 1648" d="M177.878,143.526a2.021,2.021,0,1,1-2.021-2.086,2.051,2.051,0,0,1,2.021,2.086" transform="translate(419.662 290.803)" fill="#00cdc0"/>
        <path id="Path_1649" data-name="Path 1649" d="M144.188,155.112a2.02,2.02,0,1,1-2.021-2.083,2.054,2.054,0,0,1,2.021,2.083" transform="translate(338.331 317.568)" fill="#00cdc0"/>
        <path id="Path_1650" data-name="Path 1650" d="M162.795,141.819a2.02,2.02,0,1,1-2.018-2.083,2.054,2.054,0,0,1,2.018,2.083" transform="translate(383.25 286.867)" fill="#00cdc0"/>
        <path id="Path_1651" data-name="Path 1651" d="M156.542,145.756a2.02,2.02,0,1,1-2.021-2.083,2.054,2.054,0,0,1,2.021,2.083" transform="translate(368.155 295.96)" fill="#00cdc0"/>
        <path id="Path_1652" data-name="Path 1652" d="M142.166,186.456a2.02,2.02,0,1,1-2.018-2.083,2.054,2.054,0,0,1,2.018,2.083" transform="translate(333.45 389.957)" fill="#00cdc0"/>
        <path id="Path_1654" data-name="Path 1654" d="M135.238,127.936a2.021,2.021,0,1,1-2.018-2.087,2.051,2.051,0,0,1,2.018,2.087" transform="translate(316.725 254.795)" fill="#00cdc0"/>
        <path id="Path_1656" data-name="Path 1656" d="M120.931,138.04a2.02,2.02,0,1,1-2.021-2.083,2.054,2.054,0,0,1,2.021,2.083" transform="translate(282.187 278.14)" fill="#00cdc0"/>
        <path id="Path_1657" data-name="Path 1657" d="M134.1,161.779a2.02,2.02,0,1,1-2.021-2.083,2.054,2.054,0,0,1,2.021,2.083" transform="translate(313.973 332.965)" fill="#00cdc0"/>
        <path id="Path_1659" data-name="Path 1659" d="M126.343,174.47a2.02,2.02,0,1,1-2.021-2.083,2.054,2.054,0,0,1,2.021,2.083" transform="translate(295.252 362.275)" fill="#00cdc0"/>
        <path id="Path_1660" data-name="Path 1660" d="M142.647,114.246a2.021,2.021,0,1,1-2.021-2.087,2.054,2.054,0,0,1,2.021,2.087" transform="translate(334.611 223.178)" fill="#00cdc0"/>
        <path id="Path_1661" data-name="Path 1661" d="M192.9,136.556a2.02,2.02,0,1,1-2.021-2.083,2.054,2.054,0,0,1,2.021,2.083" transform="translate(455.928 274.712)" fill="#00cdc0"/>
        <path id="Path_1663" data-name="Path 1663" d="M174.176,123.832a2.021,2.021,0,1,1-2.021-2.086,2.051,2.051,0,0,1,2.021,2.086" transform="translate(410.725 245.319)" fill="#00cdc0"/>
        <path id="Path_1664" data-name="Path 1664" d="M145.521,130.544a2.02,2.02,0,1,1-2.018-2.083,2.054,2.054,0,0,1,2.018,2.083" transform="translate(341.549 260.828)" fill="#00cdc0"/>
        <path id="Path_1665" data-name="Path 1665" d="M126.328,146.78a2.021,2.021,0,1,1-2.021-2.086,2.051,2.051,0,0,1,2.021,2.086" transform="translate(295.215 298.318)" fill="#00cdc0"/>
        <path id="Path_1666" data-name="Path 1666" d="M170.012,147.415a2.02,2.02,0,1,1-2.021-2.083,2.054,2.054,0,0,1,2.021,2.083" transform="translate(400.672 299.791)" fill="#00cdc0"/>
        <path id="Path_1667" data-name="Path 1667" d="M183.056,121.357a2.021,2.021,0,1,1-2.021-2.087,2.051,2.051,0,0,1,2.021,2.087" transform="translate(432.162 239.601)" fill="#00cdc0"/>
        <path id="Path_1668" data-name="Path 1668" d="M170.06,138.787a2.02,2.02,0,1,1-2.021-2.083,2.051,2.051,0,0,1,2.021,2.083" transform="translate(400.788 279.865)" fill="#00cdc0"/>
        <path id="Path_1670" data-name="Path 1670" d="M183.1,135.973a2.02,2.02,0,1,1-2.021-2.083,2.054,2.054,0,0,1,2.021,2.083" transform="translate(432.268 273.366)" fill="#00cdc0"/>
        <path id="Path_1672" data-name="Path 1672" d="M189.582,170.447a2.02,2.02,0,1,1-2.018-2.083,2.054,2.054,0,0,1,2.018,2.083" transform="translate(447.916 352.984)" fill="#00cdc0"/>
        <path id="Path_1673" data-name="Path 1673" d="M146.31,175.18a2.02,2.02,0,1,1-2.021-2.083,2.054,2.054,0,0,1,2.021,2.083" transform="translate(343.454 363.915)" fill="#00cdc0"/>
        <path id="Path_1674" data-name="Path 1674" d="M160.165,120.75a2.02,2.02,0,1,1-2.018-2.083,2.054,2.054,0,0,1,2.018,2.083" transform="translate(376.901 238.208)" fill="#00cdc0"/>
        <path id="Path_1675" data-name="Path 1675" d="M166.344,168.554a2.02,2.02,0,1,1-2.018-2.083,2.054,2.054,0,0,1,2.018,2.083" transform="translate(391.817 348.612)" fill="#00cdc0"/>
        <path id="Path_1676" data-name="Path 1676" d="M188.9,128.556a2.02,2.02,0,1,1-2.021-2.086,2.051,2.051,0,0,1,2.021,2.086" transform="translate(446.282 256.229)" fill="#00cdc0"/>
        <path id="Path_1677" data-name="Path 1677" d="M151.106,120a2.02,2.02,0,1,1-2.021-2.083A2.054,2.054,0,0,1,151.106,120" transform="translate(355.032 236.483)" fill="#00cdc0"/>
        <path id="Path_1678" data-name="Path 1678" d="M194.456,154.335a2.02,2.02,0,1,1-2.021-2.083,2.054,2.054,0,0,1,2.021,2.083" transform="translate(459.682 315.773)" fill="#00cdc0"/>
        <path id="Path_1679" data-name="Path 1679" d="M130.068,135.41a2.02,2.02,0,1,1-2.018-2.087,2.051,2.051,0,0,1,2.018,2.087" transform="translate(304.244 272.059)" fill="#00cdc0"/>
        <path id="Path_1680" data-name="Path 1680" d="M173.907,132.924a2.021,2.021,0,1,1-2.018-2.087,2.051,2.051,0,0,1,2.018,2.087" transform="translate(410.075 266.315)" fill="#00cdc0"/>
        <path id="Path_1681" data-name="Path 1681" d="M139.779,169.753a2.021,2.021,0,1,1-2.021-2.086,2.051,2.051,0,0,1,2.021,2.086" transform="translate(327.687 351.374)" fill="#00cdc0"/>
        <path id="Path_1682" data-name="Path 1682" d="M149.3,149.491a2.02,2.02,0,1,1-2.021-2.083,2.054,2.054,0,0,1,2.021,2.083" transform="translate(350.662 304.586)" fill="#00cdc0"/>
        <path id="Path_1683" data-name="Path 1683" d="M353.661,263.806a3.121,3.121,0,1,0-3.021-3.119,3.07,3.07,0,0,0,3.021,3.119" transform="translate(846.475 558.905)" fill="#fff"/>
        <path id="Path_1684" data-name="Path 1684" d="M362.285,263.806a3.121,3.121,0,1,0-3.021-3.119,3.071,3.071,0,0,0,3.021,3.119" transform="translate(867.294 558.905)" fill="#fff"/>
        <path id="Path_1685" data-name="Path 1685" d="M370.91,263.806a3.121,3.121,0,1,0-3.022-3.119,3.07,3.07,0,0,0,3.022,3.119" transform="translate(888.113 558.905)" fill="#fff"/>
        <path id="Path_1686" data-name="Path 1686" d="M379.533,263.806a3.121,3.121,0,1,0-3.021-3.119,3.07,3.07,0,0,0,3.021,3.119" transform="translate(908.929 558.905)" fill="#fff"/>
        <path id="Path_1687" data-name="Path 1687" d="M388.156,263.806a3.121,3.121,0,1,0-3.021-3.119,3.07,3.07,0,0,0,3.021,3.119" transform="translate(929.749 558.905)" fill="#fff"/>
        <path id="Path_1688" data-name="Path 1688" d="M396.781,263.806a3.121,3.121,0,1,0-3.022-3.119,3.071,3.071,0,0,0,3.022,3.119" transform="translate(950.568 558.905)" fill="#fff"/>
        <path id="Path_1689" data-name="Path 1689" d="M405.4,263.806a3.121,3.121,0,1,0-3.021-3.119,3.071,3.071,0,0,0,3.021,3.119" transform="translate(971.387 558.905)" fill="#fff"/>
        <path id="Path_1690" data-name="Path 1690" d="M414.029,263.806a3.121,3.121,0,1,0-3.022-3.119,3.07,3.07,0,0,0,3.022,3.119" transform="translate(992.206 558.905)" fill="#fff"/>
        <path id="Path_1691" data-name="Path 1691" d="M422.652,263.806a3.121,3.121,0,1,0-3.021-3.119,3.071,3.071,0,0,0,3.021,3.119" transform="translate(1013.025 558.905)" fill="#fff"/>
        <path id="Path_1692" data-name="Path 1692" d="M431.277,263.806a3.121,3.121,0,1,0-3.022-3.119,3.07,3.07,0,0,0,3.022,3.119" transform="translate(1033.844 558.905)" fill="#fff"/>
        <path id="Path_1693" data-name="Path 1693" d="M439.9,263.806a3.121,3.121,0,1,0-3.022-3.119,3.068,3.068,0,0,0,3.022,3.119" transform="translate(1054.661 558.905)" fill="#fff"/>
        <path id="Path_1694" data-name="Path 1694" d="M448.524,263.806a3.121,3.121,0,1,0-3.022-3.119,3.07,3.07,0,0,0,3.022,3.119" transform="translate(1075.48 558.905)" fill="#fff"/>
        <path id="Path_1695" data-name="Path 1695" d="M457.147,263.806a3.121,3.121,0,1,0-3.021-3.119,3.07,3.07,0,0,0,3.021,3.119" transform="translate(1096.299 558.905)" fill="#fff"/>
        <path id="Path_1696" data-name="Path 1696" d="M465.772,263.806a3.121,3.121,0,1,0-3.022-3.119,3.07,3.07,0,0,0,3.022,3.119" transform="translate(1117.118 558.905)" fill="#fff"/>
        <path id="Path_1697" data-name="Path 1697" d="M474.4,263.806a3.121,3.121,0,1,0-3.021-3.119,3.071,3.071,0,0,0,3.021,3.119" transform="translate(1137.937 558.905)" fill="#fff"/>
        <path id="Path_1698" data-name="Path 1698" d="M483.019,263.806A3.121,3.121,0,1,0,480,260.687a3.071,3.071,0,0,0,3.022,3.119" transform="translate(1158.756 558.905)" fill="#fff"/>
        <path id="Path_1699" data-name="Path 1699" d="M491.643,263.806a3.121,3.121,0,1,0-3.021-3.119,3.07,3.07,0,0,0,3.021,3.119" transform="translate(1179.575 558.905)" fill="#fff"/>
        <path id="Path_1700" data-name="Path 1700" d="M500.267,263.806a3.121,3.121,0,1,0-3.022-3.119,3.071,3.071,0,0,0,3.022,3.119" transform="translate(1200.392 558.905)" fill="#fff"/>
        <path id="Path_1701" data-name="Path 1701" d="M353.661,272.43a3.121,3.121,0,1,0-3.021-3.119,3.07,3.07,0,0,0,3.021,3.119" transform="translate(846.475 578.819)" fill="#fff"/>
        <path id="Path_1702" data-name="Path 1702" d="M362.285,272.43a3.121,3.121,0,1,0-3.021-3.119,3.07,3.07,0,0,0,3.021,3.119" transform="translate(867.294 578.819)" fill="#fff"/>
        <path id="Path_1703" data-name="Path 1703" d="M370.91,272.43a3.121,3.121,0,1,0-3.022-3.119,3.07,3.07,0,0,0,3.022,3.119" transform="translate(888.113 578.819)" fill="#fff"/>
        <path id="Path_1704" data-name="Path 1704" d="M379.533,272.43a3.121,3.121,0,1,0-3.021-3.119,3.07,3.07,0,0,0,3.021,3.119" transform="translate(908.929 578.819)" fill="#fff"/>
        <path id="Path_1705" data-name="Path 1705" d="M388.156,272.43a3.121,3.121,0,1,0-3.021-3.119,3.07,3.07,0,0,0,3.021,3.119" transform="translate(929.749 578.819)" fill="#fff"/>
        <path id="Path_1706" data-name="Path 1706" d="M396.781,272.43a3.121,3.121,0,1,0-3.022-3.119,3.07,3.07,0,0,0,3.022,3.119" transform="translate(950.568 578.819)" fill="#fff"/>
        <path id="Path_1707" data-name="Path 1707" d="M405.4,272.43a3.121,3.121,0,1,0-3.021-3.119,3.071,3.071,0,0,0,3.021,3.119" transform="translate(971.387 578.819)" fill="#fff"/>
        <path id="Path_1708" data-name="Path 1708" d="M414.029,272.43a3.121,3.121,0,1,0-3.022-3.119,3.07,3.07,0,0,0,3.022,3.119" transform="translate(992.206 578.819)" fill="#fff"/>
        <path id="Path_1709" data-name="Path 1709" d="M422.652,272.43a3.121,3.121,0,1,0-3.021-3.119,3.07,3.07,0,0,0,3.021,3.119" transform="translate(1013.025 578.819)" fill="#fff"/>
        <path id="Path_1710" data-name="Path 1710" d="M431.277,272.43a3.121,3.121,0,1,0-3.022-3.119,3.07,3.07,0,0,0,3.022,3.119" transform="translate(1033.844 578.819)" fill="#fff"/>
        <path id="Path_1711" data-name="Path 1711" d="M439.9,272.43a3.121,3.121,0,1,0-3.022-3.119,3.068,3.068,0,0,0,3.022,3.119" transform="translate(1054.661 578.819)" fill="#fff"/>
        <path id="Path_1712" data-name="Path 1712" d="M448.524,272.43a3.121,3.121,0,1,0-3.022-3.119,3.07,3.07,0,0,0,3.022,3.119" transform="translate(1075.48 578.819)" fill="#fff"/>
        <path id="Path_1713" data-name="Path 1713" d="M457.147,272.43a3.121,3.121,0,1,0-3.021-3.119,3.07,3.07,0,0,0,3.021,3.119" transform="translate(1096.299 578.819)" fill="#fff"/>
        <path id="Path_1714" data-name="Path 1714" d="M465.772,272.43a3.121,3.121,0,1,0-3.022-3.119,3.07,3.07,0,0,0,3.022,3.119" transform="translate(1117.118 578.819)" fill="#fff"/>
        <path id="Path_1715" data-name="Path 1715" d="M474.4,272.43a3.121,3.121,0,1,0-3.021-3.119,3.071,3.071,0,0,0,3.021,3.119" transform="translate(1137.937 578.819)" fill="#fff"/>
        <path id="Path_1716" data-name="Path 1716" d="M483.019,272.43A3.121,3.121,0,1,0,480,269.311a3.07,3.07,0,0,0,3.022,3.119" transform="translate(1158.756 578.819)" fill="#fff"/>
        <path id="Path_1717" data-name="Path 1717" d="M491.643,272.43a3.121,3.121,0,1,0-3.021-3.119,3.07,3.07,0,0,0,3.021,3.119" transform="translate(1179.575 578.819)" fill="#fff"/>
        <path id="Path_1718" data-name="Path 1718" d="M500.267,272.43a3.121,3.121,0,1,0-3.022-3.119,3.071,3.071,0,0,0,3.022,3.119" transform="translate(1200.392 578.819)" fill="#fff"/>
        <path id="Path_1719" data-name="Path 1719" d="M353.661,281.054a3.121,3.121,0,1,0-3.021-3.119,3.07,3.07,0,0,0,3.021,3.119" transform="translate(846.475 585.735)" fill="#fff"/>
        <path id="Path_1720" data-name="Path 1720" d="M362.285,281.054a3.121,3.121,0,1,0-3.021-3.119,3.07,3.07,0,0,0,3.021,3.119" transform="translate(867.294 585.735)" fill="#fff"/>
        <path id="Path_1721" data-name="Path 1721" d="M370.91,281.054a3.121,3.121,0,1,0-3.022-3.119,3.07,3.07,0,0,0,3.022,3.119" transform="translate(888.113 585.735)" fill="#fff"/>
        <path id="Path_1722" data-name="Path 1722" d="M379.533,281.054a3.121,3.121,0,1,0-3.021-3.119,3.07,3.07,0,0,0,3.021,3.119" transform="translate(908.929 585.735)" fill="#fff"/>
        <path id="Path_1723" data-name="Path 1723" d="M388.156,281.054a3.121,3.121,0,1,0-3.021-3.119,3.07,3.07,0,0,0,3.021,3.119" transform="translate(929.749 585.735)" fill="#fff"/>
        <path id="Path_1724" data-name="Path 1724" d="M396.781,281.054a3.121,3.121,0,1,0-3.022-3.119,3.07,3.07,0,0,0,3.022,3.119" transform="translate(950.568 585.735)" fill="#fff"/>
        <path id="Path_1725" data-name="Path 1725" d="M405.4,281.054a3.121,3.121,0,1,0-3.021-3.119,3.071,3.071,0,0,0,3.021,3.119" transform="translate(971.387 585.735)" fill="#fff"/>
        <path id="Path_1726" data-name="Path 1726" d="M414.029,281.054a3.121,3.121,0,1,0-3.022-3.119,3.07,3.07,0,0,0,3.022,3.119" transform="translate(992.206 585.735)" fill="#fff"/>
        <path id="Path_1727" data-name="Path 1727" d="M422.652,281.054a3.121,3.121,0,1,0-3.021-3.119,3.07,3.07,0,0,0,3.021,3.119" transform="translate(1013.025 585.735)" fill="#fff"/>
        <path id="Path_1728" data-name="Path 1728" d="M431.277,281.054a3.121,3.121,0,1,0-3.022-3.119,3.07,3.07,0,0,0,3.022,3.119" transform="translate(1033.844 585.735)" fill="#fff"/>
        <path id="Path_1729" data-name="Path 1729" d="M439.9,281.054a3.121,3.121,0,1,0-3.022-3.119,3.068,3.068,0,0,0,3.022,3.119" transform="translate(1054.661 585.735)" fill="#fff"/>
        <path id="Path_1730" data-name="Path 1730" d="M448.524,281.054a3.121,3.121,0,1,0-3.022-3.119,3.07,3.07,0,0,0,3.022,3.119" transform="translate(1075.48 585.735)" fill="#fff"/>
        <path id="Path_1731" data-name="Path 1731" d="M457.147,281.054a3.121,3.121,0,1,0-3.021-3.119,3.07,3.07,0,0,0,3.021,3.119" transform="translate(1096.299 585.735)" fill="#fff"/>
        <path id="Path_1732" data-name="Path 1732" d="M465.772,281.054a3.121,3.121,0,1,0-3.022-3.119,3.07,3.07,0,0,0,3.022,3.119" transform="translate(1117.118 585.735)" fill="#fff"/>
        <path id="Path_1733" data-name="Path 1733" d="M474.4,281.054a3.121,3.121,0,1,0-3.021-3.119,3.071,3.071,0,0,0,3.021,3.119" transform="translate(1137.937 585.735)" fill="#fff"/>
        <path id="Path_1734" data-name="Path 1734" d="M483.019,281.054A3.121,3.121,0,1,0,480,277.935a3.07,3.07,0,0,0,3.022,3.119" transform="translate(1158.756 585.735)" fill="#fff"/>
        <path id="Path_1735" data-name="Path 1735" d="M491.643,281.054a3.121,3.121,0,1,0-3.021-3.119,3.07,3.07,0,0,0,3.021,3.119" transform="translate(1179.575 585.735)" fill="#fff"/>
        <path id="Path_1736" data-name="Path 1736" d="M500.267,281.054a3.121,3.121,0,1,0-3.022-3.119,3.071,3.071,0,0,0,3.022,3.119" transform="translate(1200.392 585.735)" fill="#fff"/>
        <path id="Path_1737" data-name="Path 1737" d="M353.661,289.677a3.121,3.121,0,1,0-3.021-3.119,3.071,3.071,0,0,0,3.021,3.119" transform="translate(846.475 607.503)" fill="#fff"/>
        <path id="Path_1738" data-name="Path 1738" d="M362.285,289.677a3.121,3.121,0,1,0-3.021-3.119,3.071,3.071,0,0,0,3.021,3.119" transform="translate(867.294 607.503)" fill="#fff"/>
        <path id="Path_1739" data-name="Path 1739" d="M370.91,289.677a3.121,3.121,0,1,0-3.022-3.119,3.071,3.071,0,0,0,3.022,3.119" transform="translate(888.113 607.503)" fill="#fff"/>
        <path id="Path_1740" data-name="Path 1740" d="M379.533,289.677a3.121,3.121,0,1,0-3.021-3.119,3.071,3.071,0,0,0,3.021,3.119" transform="translate(908.929 607.503)" fill="#fff"/>
        <path id="Path_1741" data-name="Path 1741" d="M388.156,289.677a3.121,3.121,0,1,0-3.021-3.119,3.071,3.071,0,0,0,3.021,3.119" transform="translate(929.749 607.503)" fill="#fff"/>
        <path id="Path_1742" data-name="Path 1742" d="M396.781,289.677a3.121,3.121,0,1,0-3.022-3.119,3.071,3.071,0,0,0,3.022,3.119" transform="translate(950.568 607.503)" fill="#fff"/>
        <path id="Path_1743" data-name="Path 1743" d="M405.4,289.677a3.121,3.121,0,1,0-3.021-3.119,3.071,3.071,0,0,0,3.021,3.119" transform="translate(971.387 607.503)" fill="#fff"/>
        <path id="Path_1744" data-name="Path 1744" d="M414.029,289.677a3.121,3.121,0,1,0-3.022-3.119,3.07,3.07,0,0,0,3.022,3.119" transform="translate(992.206 607.503)" fill="#fff"/>
        <path id="Path_1745" data-name="Path 1745" d="M422.652,289.677a3.121,3.121,0,1,0-3.021-3.119,3.071,3.071,0,0,0,3.021,3.119" transform="translate(1013.025 607.503)" fill="#fff"/>
        <path id="Path_1746" data-name="Path 1746" d="M431.277,289.677a3.121,3.121,0,1,0-3.022-3.119,3.071,3.071,0,0,0,3.022,3.119" transform="translate(1033.844 607.503)" fill="#fff"/>
        <path id="Path_1747" data-name="Path 1747" d="M439.9,289.677a3.121,3.121,0,1,0-3.022-3.119,3.069,3.069,0,0,0,3.022,3.119" transform="translate(1054.661 607.503)" fill="#fff"/>
        <path id="Path_1748" data-name="Path 1748" d="M448.524,289.677a3.121,3.121,0,1,0-3.022-3.119,3.071,3.071,0,0,0,3.022,3.119" transform="translate(1075.48 607.503)" fill="#fff"/>
        <path id="Path_1749" data-name="Path 1749" d="M457.147,289.677a3.121,3.121,0,1,0-3.021-3.119,3.071,3.071,0,0,0,3.021,3.119" transform="translate(1096.299 607.503)" fill="#fff"/>
        <path id="Path_1750" data-name="Path 1750" d="M465.772,289.677a3.121,3.121,0,1,0-3.022-3.119,3.071,3.071,0,0,0,3.022,3.119" transform="translate(1117.118 607.503)" fill="#fff"/>
        <path id="Path_1751" data-name="Path 1751" d="M474.4,289.677a3.121,3.121,0,1,0-3.021-3.119,3.071,3.071,0,0,0,3.021,3.119" transform="translate(1137.937 607.503)" fill="#fff"/>
        <path id="Path_1752" data-name="Path 1752" d="M483.019,289.677A3.121,3.121,0,1,0,480,286.558a3.071,3.071,0,0,0,3.022,3.119" transform="translate(1158.756 607.503)" fill="#fff"/>
        <path id="Path_1753" data-name="Path 1753" d="M491.643,289.677a3.121,3.121,0,1,0-3.021-3.119,3.071,3.071,0,0,0,3.021,3.119" transform="translate(1179.575 607.503)" fill="#fff"/>
        <path id="Path_1754" data-name="Path 1754" d="M500.267,289.677a3.121,3.121,0,1,0-3.022-3.119,3.071,3.071,0,0,0,3.022,3.119" transform="translate(1200.392 607.503)" fill="#fff"/>
        <path id="Path_1755" data-name="Path 1755" d="M731.108,447.48a1.86,1.86,0,0,1,0-2.5,1.659,1.659,0,0,1,2.424,0,1.852,1.852,0,0,1,0,2.5,1.726,1.726,0,0,1-1.195.5,1.815,1.815,0,0,1-1.229-.5M719.057,435a1.785,1.785,0,0,1,0-2.5,1.673,1.673,0,0,1,2.39,0,1.785,1.785,0,0,1,0,2.5,1.615,1.615,0,0,1-2.39,0m-12.082-12.477a1.8,1.8,0,0,1,0-2.464,1.648,1.648,0,0,1,2.424,0,1.809,1.809,0,0,1,0,2.464,1.653,1.653,0,0,1-2.424,0m-12.055-12.438a1.784,1.784,0,0,1,0-2.5,1.671,1.671,0,0,1,2.393,0,1.791,1.791,0,0,1,0,2.5,1.626,1.626,0,0,1-2.393,0m-12.086-12.477a1.811,1.811,0,0,1,0-2.471,1.654,1.654,0,0,1,2.424,0,1.811,1.811,0,0,1,0,2.471,1.661,1.661,0,0,1-2.424,0m-12.052-12.445a1.785,1.785,0,0,1,0-2.5,1.673,1.673,0,0,1,2.39,0,1.784,1.784,0,0,1,0,2.5,1.694,1.694,0,0,1-2.39,0M658.7,372.69a1.814,1.814,0,0,1,0-2.467,1.654,1.654,0,0,1,2.424,0,1.807,1.807,0,0,1,0,2.467,1.646,1.646,0,0,1-2.424,0m-12.052-12.441a1.791,1.791,0,0,1,0-2.5,1.679,1.679,0,0,1,2.39,0,1.785,1.785,0,0,1,0,2.5,1.585,1.585,0,0,1-1.195.5,1.541,1.541,0,0,1-1.2-.5m-12.086-12.477a1.785,1.785,0,0,1,0-2.5,1.718,1.718,0,0,1,2.427,0,1.86,1.86,0,0,1,0,2.5,1.719,1.719,0,0,1-1.233.529,1.631,1.631,0,0,1-1.195-.529m-12.082-12.438a1.845,1.845,0,0,1,0-2.5,1.648,1.648,0,0,1,2.424,0,1.79,1.79,0,0,1,0,2.5,1.744,1.744,0,0,1-2.424,0m-12.055-12.477a1.784,1.784,0,0,1,0-2.5,1.707,1.707,0,0,1,2.424,0,1.852,1.852,0,0,1,0,2.5,1.716,1.716,0,0,1-1.229.525,1.64,1.64,0,0,1-1.195-.525m-12.086-12.477a1.811,1.811,0,0,1,0-2.471,1.654,1.654,0,0,1,2.424,0,1.811,1.811,0,0,1,0,2.471,1.661,1.661,0,0,1-2.424,0m-12.052-12.445a1.784,1.784,0,0,1,0-2.5,1.673,1.673,0,0,1,2.39,0,1.784,1.784,0,0,1,0,2.5,1.574,1.574,0,0,1-1.191.532,1.643,1.643,0,0,1-1.2-.532M574.2,285.46a1.814,1.814,0,0,1,0-2.467,1.653,1.653,0,0,1,2.424,0,1.807,1.807,0,0,1,0,2.467,1.646,1.646,0,0,1-2.424,0m-12.086-12.441a1.859,1.859,0,0,1,0-2.5,1.72,1.72,0,0,1,2.424,0,1.785,1.785,0,0,1,0,2.5,1.585,1.585,0,0,1-1.2.5,1.663,1.663,0,0,1-1.229-.5m-12.052-12.477a1.738,1.738,0,0,1,0-2.464,1.652,1.652,0,0,1,2.427,0,1.81,1.81,0,0,1,0,2.464,1.719,1.719,0,0,1-1.232.529,1.689,1.689,0,0,1-1.2-.529M537.977,248.1a1.845,1.845,0,0,1,0-2.5,1.648,1.648,0,0,1,2.424,0,1.791,1.791,0,0,1,0,2.5,1.616,1.616,0,0,1-1.2.49,1.666,1.666,0,0,1-1.226-.49m-12.055-12.477a1.746,1.746,0,0,1,0-2.471,1.654,1.654,0,0,1,2.424,0,1.812,1.812,0,0,1,0,2.471,1.661,1.661,0,0,1-2.424,0m-12.086-12.445a1.852,1.852,0,0,1,0-2.5,1.714,1.714,0,0,1,2.424,0,1.745,1.745,0,0,1-1.195,3,1.821,1.821,0,0,1-1.229-.493m-12.052-12.477a1.784,1.784,0,0,1,0-2.5,1.713,1.713,0,0,1,2.424,0,1.852,1.852,0,0,1,0,2.5,1.7,1.7,0,0,1-1.226.532,1.583,1.583,0,0,1-1.2-.532M489.7,198.264a1.859,1.859,0,0,1,0-2.5,1.654,1.654,0,0,1,2.424,0,1.785,1.785,0,0,1,0,2.5,1.808,1.808,0,0,1-1.195.5,1.831,1.831,0,0,1-1.229-.5" transform="translate(1181.005 404.048)" fill="#fff"/>
        <path id="Path_1756" data-name="Path 1756" d="M332.707,314.146a2.356,2.356,0,0,1,0-3.309,2.268,2.268,0,0,1,3.206,0,2.451,2.451,0,0,1,0,3.309,2.254,2.254,0,0,1-1.629.7,2.133,2.133,0,0,1-1.577-.7m-15.992-16.459a2.444,2.444,0,0,1,0-3.31,2.272,2.272,0,0,1,3.209,0,2.363,2.363,0,0,1,0,3.31,2.3,2.3,0,0,1-3.209,0m-15.944-16.505a2.3,2.3,0,0,1,0-3.264,2.19,2.19,0,0,1,3.206,0,2.386,2.386,0,0,1,0,3.264,2.249,2.249,0,0,1-1.629.7,2.075,2.075,0,0,1-1.577-.7m-15.988-16.459a2.449,2.449,0,0,1,0-3.313,2.19,2.19,0,0,1,3.206,0,2.449,2.449,0,0,1,0,3.313,2.3,2.3,0,0,1-3.206,0m-15.992-16.509a2.444,2.444,0,0,1,0-3.309,2.272,2.272,0,0,1,3.209,0,2.363,2.363,0,0,1,0,3.309,2.08,2.08,0,0,1-1.581.7,2.252,2.252,0,0,1-1.629-.7m-15.944-16.5a2.4,2.4,0,0,1,0-3.267,2.184,2.184,0,0,1,3.206,0,2.39,2.39,0,0,1,0,3.267,2.19,2.19,0,0,1-3.206,0m-15.94-16.463a2.357,2.357,0,0,1,0-3.309,2.211,2.211,0,0,1,3.158,0,2.357,2.357,0,0,1,0,3.309,2.128,2.128,0,0,1-3.158,0M220.92,198.744a2.3,2.3,0,0,1,0-3.264,2.184,2.184,0,0,1,3.206,0,2.4,2.4,0,0,1,0,3.264,2.268,2.268,0,0,1-1.629.7,2.22,2.22,0,0,1-1.577-.7m-15.992-16.459a2.444,2.444,0,0,1,0-3.31,2.268,2.268,0,0,1,3.206,0,2.357,2.357,0,0,1,0,3.31,2.108,2.108,0,0,1-1.581.652,2.194,2.194,0,0,1-1.625-.652m-15.944-16.505a2.444,2.444,0,0,1,0-3.309,2.209,2.209,0,0,1,3.161,0,2.357,2.357,0,0,1,0,3.309,2.1,2.1,0,0,1-1.584.7,2.152,2.152,0,0,1-1.577-.7M172.993,149.32a2.456,2.456,0,0,1,0-3.313,2.272,2.272,0,0,1,3.209,0,2.449,2.449,0,0,1,0,3.313,2.159,2.159,0,0,1-1.581.7,2.263,2.263,0,0,1-1.629-.7m-15.944-16.509a2.3,2.3,0,0,1,0-3.26,2.184,2.184,0,0,1,3.206,0,2.382,2.382,0,0,1,0,3.26,2.232,2.232,0,0,1-1.622.7,2.087,2.087,0,0,1-1.584-.7m-15.988-16.459a2.451,2.451,0,0,1,0-3.309,2.184,2.184,0,0,1,3.206,0,2.444,2.444,0,0,1,0,3.309,2.386,2.386,0,0,1-1.581.656,2.421,2.421,0,0,1-1.625-.656M125.069,99.847a2.459,2.459,0,0,1,0-3.309,2.272,2.272,0,0,1,3.209,0,2.357,2.357,0,0,1,0,3.309,2.077,2.077,0,0,1-1.581.7,2.26,2.26,0,0,1-1.629-.7m-15.94-16.505a2.386,2.386,0,0,1,0-3.264,2.188,2.188,0,0,1,3.209,0,2.4,2.4,0,0,1,0,3.264,2.268,2.268,0,0,1-1.629.7,2.233,2.233,0,0,1-1.581-.7M93.185,66.883a2.357,2.357,0,0,1,0-3.309,2.209,2.209,0,0,1,3.161,0,2.357,2.357,0,0,1,0,3.309,2.139,2.139,0,0,1-3.161,0M77.2,50.423a2.361,2.361,0,0,1,0-3.313,2.19,2.19,0,0,1,3.206,0,2.449,2.449,0,0,1,0,3.313,2.413,2.413,0,0,1-1.629.652,2.367,2.367,0,0,1-1.577-.652M61.205,33.915a2.444,2.444,0,0,1,0-3.309,2.272,2.272,0,0,1,3.209,0,2.363,2.363,0,0,1,0,3.309,2.1,2.1,0,0,1-1.581.656,2.2,2.2,0,0,1-1.629-.656M45.261,17.41a2.393,2.393,0,0,1,0-3.264,2.19,2.19,0,0,1,3.206,0,2.386,2.386,0,0,1,0,3.264,2.238,2.238,0,0,1-1.622.7,2.162,2.162,0,0,1-1.584-.7" transform="translate(107.713 -4.233)" fill="#fff"/>
        <path id="Path_1757" data-name="Path 1757" d="M105.374,314.9a1.687,1.687,0,0,1-1.209-.515L74.832,284.1a1.8,1.8,0,0,1,0-2.492,1.665,1.665,0,0,1,2.414,0l29.337,30.282a1.809,1.809,0,0,1,0,2.5,1.687,1.687,0,0,1-1.209.515" transform="translate(179.438 601.566)" fill="#fff"/>
        <path id="Path_1758" data-name="Path 1758" d="M76.038,314.9a1.687,1.687,0,0,1-1.209-.515,1.809,1.809,0,0,1,0-2.5l29.337-30.282a1.665,1.665,0,0,1,2.414,0,1.8,1.8,0,0,1,0,2.492L77.246,314.383a1.687,1.687,0,0,1-1.209.515" transform="translate(179.438 601.566)" fill="#fff"/>
        <path id="Path_1759" data-name="Path 1759" d="M494.425,157.4a1.674,1.674,0,0,1-1.205-.515L463.883,126.6a1.8,1.8,0,0,1,0-2.492,1.665,1.665,0,0,1,2.414,0l29.337,30.282a1.808,1.808,0,0,1,0,2.5,1.687,1.687,0,0,1-1.208.515" transform="translate(1118.641 248.929)" fill="#fff"/>
        <path id="Path_1760" data-name="Path 1760" d="M465.088,157.4a1.674,1.674,0,0,1-1.205-.515,1.8,1.8,0,0,1,0-2.5l29.334-30.282a1.665,1.665,0,0,1,2.414,0,1.8,1.8,0,0,1,0,2.492L466.3,156.884a1.687,1.687,0,0,1-1.209.515" transform="translate(1118.641 248.929)" fill="#fff"/>
        <path id="Path_1761" data-name="Path 1761" d="M99.206,116.888a16.455,16.455,0,1,1,15.93-16.445,16.214,16.214,0,0,1-15.93,16.445m0-29.369a12.929,12.929,0,1,0,12.516,12.924A12.741,12.741,0,0,0,99.206,87.518" transform="translate(201.025 157.726)" fill="#00cdc0"/>
        <path id="Path_1762" data-name="Path 1762" d="M503.387,260.462a16.457,16.457,0,1,1,15.934-16.449,16.215,16.215,0,0,1-15.934,16.449m0-29.373a12.931,12.931,0,1,0,12.52,12.924,12.74,12.74,0,0,0-12.52-12.924" transform="translate(1176.763 488.51)" fill="#00cdc0"/>
        <path id="Path_1763" data-name="Path 1763" d="M45.144,231.848A3.153,3.153,0,1,1,48.3,235.1a3.2,3.2,0,0,1-3.151-3.253m0-26.028a3.153,3.153,0,1,1,3.151,3.253,3.2,3.2,0,0,1-3.151-3.253m0-26.025a3.153,3.153,0,1,1,3.151,3.253,3.2,3.2,0,0,1-3.151-3.253m0-26.028A3.153,3.153,0,1,1,48.3,157.02a3.2,3.2,0,0,1-3.151-3.253" transform="translate(108.981 309.491)" fill="#fff"/>
      </g>
    </g>
  </g>
</svg>
