<svg id="Group_946" data-name="Group 946" xmlns="http://www.w3.org/2000/svg" xmlns:xlink="http://www.w3.org/1999/xlink" width="14.722" height="14.724" viewBox="0 0 14.722 14.724">
  <defs>
    <clipPath id="clip-path">
      <rect id="Rectangle_238" data-name="Rectangle 238" width="14.722" height="14.724"/>
    </clipPath>
  </defs>
  <g id="Group_945" data-name="Group 945" clip-path="url(#clip-path)">
    <path id="Path_1420" data-name="Path 1420" d="M7.16,0h.4A2.046,2.046,0,0,1,8.6.674Q11.4,3.49,14.219,6.3c.061.061.123.121.179.187a1.351,1.351,0,0,1-.778,2.205,4.743,4.743,0,0,1-.476.041v.177q0,2.084,0,4.168A1.583,1.583,0,0,1,11.5,14.723q-1.1,0-2.2,0c-.362,0-.522-.162-.523-.529q0-1.653,0-3.306a.727.727,0,0,0-.788-.787c-.407,0-.815.011-1.222,0a.766.766,0,0,0-.824.818c.017,1.1.006,2.194.005,3.292,0,.353-.165.516-.521.516H3.255a1.587,1.587,0,0,1-1.676-1.676q0-2.077,0-4.154v-.16a.245.245,0,0,0-.046-.016c-.072,0-.144,0-.215,0A1.322,1.322,0,0,1,.151,7.976,3.03,3.03,0,0,1,0,7.563v-.4A2.044,2.044,0,0,1,.663,6.132Q3.4,3.409,6.122.674A2.062,2.062,0,0,1,7.16,0"/>
  </g>
</svg>
