<svg xmlns="http://www.w3.org/2000/svg" width="17.971" height="18.378" viewBox="0 0 17.971 18.378">
  <g id="Group_894" data-name="Group 894" transform="translate(-454.091 -766.74)">
    <g id="tools-and-utensils" transform="translate(448.68 766.74)">
      <g id="Group_876" data-name="Group 876" transform="translate(5.411)">
        <path id="Path_742" data-name="Path 742" d="M119.325,258.659a.417.417,0,0,0-.417-.417h-1.456a.417.417,0,0,0-.417.417v1.456a.417.417,0,0,0,.417.417h1.456a.417.417,0,0,0,.417-.417v-1.456Z" transform="translate(-112.832 -248.519)" fill="#fff"/>
        <path id="Path_743" data-name="Path 743" d="M215.96,258.659a.417.417,0,0,0-.417-.417h-1.456a.417.417,0,0,0-.417.417v1.456a.417.417,0,0,0,.417.417h1.456a.417.417,0,0,0,.417-.417Z" transform="translate(-205.829 -248.519)" fill="#fff"/>
        <path id="Path_744" data-name="Path 744" d="M312.588,258.659a.417.417,0,0,0-.417-.417h-1.456a.417.417,0,0,0-.417.417v1.456a.417.417,0,0,0,.417.417h1.456a.417.417,0,0,0,.417-.417Z" transform="translate(-298.819 -248.519)" fill="#fff"/>
        <path id="Path_745" data-name="Path 745" d="M119.325,355.292a.417.417,0,0,0-.417-.417h-1.456a.417.417,0,0,0-.417.417v1.455a.417.417,0,0,0,.417.417h1.456a.417.417,0,0,0,.417-.417v-1.455Z" transform="translate(-112.832 -341.514)" fill="#fff"/>
        <path id="Path_746" data-name="Path 746" d="M215.96,355.292a.417.417,0,0,0-.417-.417h-1.456a.417.417,0,0,0-.417.417v1.455a.417.417,0,0,0,.417.417h1.456a.417.417,0,0,0,.417-.417Z" transform="translate(-205.829 -341.514)" fill="#fff"/>
        <path id="Path_747" data-name="Path 747" d="M312.588,355.292a.417.417,0,0,0-.417-.417h-1.456a.417.417,0,0,0-.417.417v1.455a.417.417,0,0,0,.417.417h1.456a.417.417,0,0,0,.417-.417v-1.455Z" transform="translate(-298.819 -341.514)" fill="#fff"/>
        <path id="Path_748" data-name="Path 748" d="M21.782,54.15v2.223a1.816,1.816,0,0,1-1.82,1.815H18.815a1.825,1.825,0,0,1-1.831-1.815V54.142H11.809v2.231a1.825,1.825,0,0,1-1.831,1.815H8.83a1.816,1.816,0,0,1-1.82-1.815V54.15a1.655,1.655,0,0,0-1.6,1.646V68.825a1.656,1.656,0,0,0,1.647,1.657H21.735a1.658,1.658,0,0,0,1.647-1.657V55.8A1.655,1.655,0,0,0,21.782,54.15Zm-.533,13.864a.712.712,0,0,1-.712.712H8.225a.712.712,0,0,1-.712-.712v-6.73a.712.712,0,0,1,.712-.712H20.537a.712.712,0,0,1,.712.712v6.73Z" transform="translate(-5.411 -52.104)" fill="#fff"/>
        <path id="Path_749" data-name="Path 749" d="M80.174,4.892H81.31a.624.624,0,0,0,.624-.624V.624A.624.624,0,0,0,81.31,0H80.174a.624.624,0,0,0-.624.624V4.269A.624.624,0,0,0,80.174,4.892Z" transform="translate(-76.759 0)" fill="#fff"/>
        <path id="Path_750" data-name="Path 750" d="M345.082,4.892h1.136a.624.624,0,0,0,.624-.624V.624A.624.624,0,0,0,346.218,0h-1.136a.624.624,0,0,0-.624.624V4.269A.624.624,0,0,0,345.082,4.892Z" transform="translate(-331.693 0)" fill="#fff"/>
      </g>
    </g>
  </g>
</svg>
