<svg id="Group_1020" data-name="Group 1020" xmlns="http://www.w3.org/2000/svg" xmlns:xlink="http://www.w3.org/1999/xlink" width="16.118" height="18.379" viewBox="0 0 16.118 18.379">
  <defs>
    <clipPath id="clip-path">
      <rect id="Rectangle_300" data-name="Rectangle 300" width="16.118" height="18.379" fill="#fff"/>
    </clipPath>
  </defs>
  <g id="Group_1019" data-name="Group 1019" clip-path="url(#clip-path)">
    <path id="Path_1470" data-name="Path 1470" d="M54.145,0c.432.081.873.13,1.295.248a5.9,5.9,0,0,1,4.11,4.369,5.707,5.707,0,0,1-.743,4.4c-1.479,2.339-2.985,4.661-4.48,6.99-.023.035-.044.071-.068.105a.535.535,0,0,1-.943,0c-.28-.423-.549-.853-.822-1.279-1.233-1.923-2.471-3.843-3.7-5.771a5.679,5.679,0,0,1-.832-4.129A5.879,5.879,0,0,1,52.6.122c.273-.058.553-.082.829-.122Zm-.359,8.6A2.687,2.687,0,1,0,51.1,5.906,2.7,2.7,0,0,0,53.785,8.6" transform="translate(-45.726)" fill="#fff"/>
    <path id="Path_1471" data-name="Path 1471" d="M8.037,281.76a19.732,19.732,0,0,1-4.78-.646A6.616,6.616,0,0,1,.8,279.956a2.011,2.011,0,0,1-.757-1.1,1.6,1.6,0,0,1,.429-1.484,4.445,4.445,0,0,1,1.843-1.163c.452-.167.921-.285,1.379-.437.131-.043.187,0,.255.1.853,1.338,1.712,2.672,2.565,4.01a1.756,1.756,0,0,0,1.413.884,1.665,1.665,0,0,0,1.531-.683c.26-.348.481-.725.716-1.092q1-1.559,1.994-3.122a.193.193,0,0,1,.257-.1,9.083,9.083,0,0,1,2.331.888,3.256,3.256,0,0,1,1.058.922,1.592,1.592,0,0,1-.142,2.04,4.541,4.541,0,0,1-1.658,1.1,12.625,12.625,0,0,1-3.551.859c-.806.087-1.617.125-2.426.184" transform="translate(0 -263.381)" fill="#fff"/>
  </g>
</svg>
