<svg id="Group_1018" data-name="Group 1018" xmlns="http://www.w3.org/2000/svg" xmlns:xlink="http://www.w3.org/1999/xlink" width="18.371" height="18.379" viewBox="0 0 18.371 18.379">
  <defs>
    <clipPath id="clip-path">
      <rect id="Rectangle_299" data-name="Rectangle 299" width="18.371" height="18.379" fill="#fff"/>
    </clipPath>
  </defs>
  <g id="Group_1016" data-name="Group 1016" clip-path="url(#clip-path)">
    <path id="Path_1459" data-name="Path 1459" d="M5.992,0c.41.036.821.063,1.229.111a7.081,7.081,0,0,1,2.851.824,1.429,1.429,0,0,1,.707.778,1.363,1.363,0,0,1,.044.544c-.031.273-.166.382-.447.434a7.286,7.286,0,0,0-2.369.781,3.685,3.685,0,0,0-.53.365.971.971,0,0,1-.562.238A14.329,14.329,0,0,1,2.5,3.84,5.51,5.51,0,0,1,.84,3.227,1.612,1.612,0,0,1,0,2.189V1.9A1.644,1.644,0,0,1,.864.885,7.329,7.329,0,0,1,3.634.111C4.048.062,4.464.036,4.88,0Z" fill="#fff"/>
    <path id="Path_1460" data-name="Path 1460" d="M0,82.569c.19-.338.35-.393.7-.224a9.022,9.022,0,0,0,2.895.764,15.808,15.808,0,0,0,2.6.084.43.43,0,0,1,.486.414c.034.229.073.459.124.685a.416.416,0,0,1-.4.56c-.776,0-1.553,0-2.328-.039a8.689,8.689,0,0,1-2.248-.42,3.589,3.589,0,0,1-1.45-.787A1.412,1.412,0,0,1,0,82.928Z" transform="translate(0 -78.228)" fill="#fff"/>
    <path id="Path_1461" data-name="Path 1461" d="M0,133.8c.245-.323.365-.355.74-.175a8.866,8.866,0,0,0,2.825.746,15.321,15.321,0,0,0,2.612.087.436.436,0,0,1,.5.435c.03.218.068.435.118.65a.425.425,0,0,1-.417.579,16.253,16.253,0,0,1-2.7-.077,8.877,8.877,0,0,1-2.241-.525,2.472,2.472,0,0,1-1.251-.884,2.7,2.7,0,0,1-.188-.44V133.8" transform="translate(0 -126.982)" fill="#fff"/>
    <path id="Path_1462" data-name="Path 1462" d="M0,185.105c.239-.323.364-.356.74-.177a8.124,8.124,0,0,0,2.863.742c.844.069,1.694.067,2.542.087.321.008.515.145.53.409a.5.5,0,0,1-.468.548,10.825,10.825,0,0,0-2.478.545.942.942,0,0,1-.435.031,7.284,7.284,0,0,1-2.227-.639A1.851,1.851,0,0,1,0,185.536Z" transform="translate(0 -175.777)" fill="#fff"/>
    <path id="Path_1463" data-name="Path 1463" d="M56.725,243.638a12.415,12.415,0,0,1-3.631-.5,3.993,3.993,0,0,1-1.257-.633,1.127,1.127,0,0,1,.018-1.918,4.54,4.54,0,0,1,1.713-.742,13.352,13.352,0,0,1,3.449-.342,12.546,12.546,0,0,1,3,.371,4.288,4.288,0,0,1,1.606.721,1.155,1.155,0,0,1,.524,1.092,1.235,1.235,0,0,1-.511.813,4.761,4.761,0,0,1-1.892.815,13.746,13.746,0,0,1-3.016.327" transform="translate(-48.801 -227.777)" fill="#fff"/>
    <path id="Path_1464" data-name="Path 1464" d="M159.348,72.7a13.131,13.131,0,0,1-3.833-.509,4,4,0,0,1-1.272-.642,1.123,1.123,0,0,1,0-1.884,4.431,4.431,0,0,1,1.74-.766,13.385,13.385,0,0,1,3.557-.34,12.273,12.273,0,0,1,2.908.372,4.411,4.411,0,0,1,1.6.724,1.093,1.093,0,0,1,.119,1.782,2.76,2.76,0,0,1-.676.463,7.467,7.467,0,0,1-2.6.684c-.582.061-1.167.089-1.544.117" transform="translate(-146.208 -65.203)" fill="#fff"/>
    <path id="Path_1465" data-name="Path 1465" d="M57.028,324.424a13.5,13.5,0,0,1-4.008-.512,3.391,3.391,0,0,1-1.454-.814,1.149,1.149,0,0,1-.338-.841.428.428,0,0,1,.647-.416,13.541,13.541,0,0,0,1.305.485,14.745,14.745,0,0,0,7.192-.069,10.751,10.751,0,0,0,1.033-.4c.41-.174.691.013.674.459a1.389,1.389,0,0,1-.786,1.142,5.553,5.553,0,0,1-2.155.735c-.82.121-1.648.182-2.11.231" transform="translate(-48.722 -306.045)" fill="#fff"/>
    <path id="Path_1466" data-name="Path 1466" d="M159,153.348a12.431,12.431,0,0,1-3.624-.5,3.412,3.412,0,0,1-1.455-.812,1.169,1.169,0,0,1-.341-.822.424.424,0,0,1,.645-.433,9.816,9.816,0,0,0,3.691.856,15.365,15.365,0,0,0,3.732-.182,7.756,7.756,0,0,0,2-.608,2.03,2.03,0,0,1,.229-.1.413.413,0,0,1,.56.377,1.244,1.244,0,0,1-.535,1.094,4.43,4.43,0,0,1-1.635.743,13.37,13.37,0,0,1-3.264.391" transform="translate(-146.063 -143.342)" fill="#fff"/>
    <path id="Path_1467" data-name="Path 1467" d="M251.277,203.1a12.336,12.336,0,0,0,3.514-.5c.328-.1.646-.245.963-.381.4-.17.682.015.673.445a1.325,1.325,0,0,1-.679,1.093,4.677,4.677,0,0,1-1.788.7c-.638.12-1.283.207-1.928.281a.748.748,0,0,1-.421-.144c-.339-.208-.659-.447-1-.654-.242-.148-.347-.3-.294-.512a.445.445,0,0,1,.493-.323h.466" transform="translate(-238.057 -192.264)" fill="#fff"/>
    <path id="Path_1468" data-name="Path 1468" d="M292.019,253.978a1.313,1.313,0,0,1-.621,1.053,4.328,4.328,0,0,1-1.62.689c-.5.121-1.019.2-1.532.272-.384.056-.582-.186-.5-.564.046-.215.077-.434.108-.652a.474.474,0,0,1,.428-.45c.662-.124,1.328-.229,1.982-.386a6.728,6.728,0,0,0,1.068-.4c.409-.176.694,0,.687.441" transform="translate(-273.648 -241.066)" fill="#fff"/>
    <path id="Path_1469" data-name="Path 1469" d="M154.124,202.941q-.652-.008-.557-.6a.4.4,0,0,1,.525-.337,1.958,1.958,0,0,1,.342.151.414.414,0,0,1-.185.787c-.042,0-.083,0-.125,0" transform="translate(-146.041 -192.1)" fill="#fff"/>
  </g>
</svg>
