<svg xmlns="http://www.w3.org/2000/svg" xmlns:xlink="http://www.w3.org/1999/xlink" width="190.746" height="185.922" viewBox="0 0 190.746 185.922">
  <defs>
    <clipPath id="clip-path">
      <rect id="Rectangle_97" data-name="Rectangle 97" width="182.121" height="84.385" fill="#1f3890"/>
    </clipPath>
  </defs>
  <g id="Group_1117" data-name="Group 1117" transform="translate(0 124.206) rotate(-43)">
    <g id="Group_15" data-name="Group 15" transform="translate(0 0)" clip-path="url(#clip-path)">
      <path id="Path_1" data-name="Path 1" d="M.836,5.913C17.8-.279,37.194-3,54.154,4.726,68,11.032,78.7,24.141,79.613,39.6l-3.6-1.491c16.381-13.346,39.509-16.595,58.77-7.721a57.507,57.507,0,0,1,22.3,18.468c7.1,9.779,9.366,21.409,12.779,32.756.835,2.778-3.507,3.966-4.339,1.2-3.014-10.036-4.949-20.433-10.729-29.366a53,53,0,0,0-20.247-18.2C116.694,26.069,94.682,28.866,79,41.094a2.142,2.142,0,0,1-3.6-1.491C74.648,25.122,63.855,13.047,50.906,7.515,35.253.826,17.224,3.237,1.484,8.265c-1.512.483-2.1-1.82-.649-2.352" transform="translate(0.001 -0.001)" fill="#1f3890"/>
      <path id="Path_2" data-name="Path 2" d="M26.88,27.459c-8.888-2.937-17.424-8-25.754-12.227-2.328-1.182-.7-4.864,1.759-4.172A93.805,93.805,0,0,1,30.824,24.234q-1.541.4-3.082.808,3.273-6.41,6.548-12.82c1.947-3.813,3.576-8.51,6.528-11.637C42.208-.888,44.352.678,44,2.438c-.829,4.211-3.781,8.312-5.746,12.1L31.632,27.316a2.265,2.265,0,0,1-3.082.808A89.266,89.266,0,0,0,1.671,15.462q.88-2.087,1.759-4.172c8.113,4.332,17.03,8.371,24.416,13.875,1.049.782.5,2.779-.967,2.294" transform="translate(137.16 54.655)" fill="#1f3890"/>
      <path id="Path_3" data-name="Path 3" d="M.707,15.172q10.724-3.93,21.433-7.9c3.447-1.288,6.9-2.575,10.333-3.885C35.749,2.133,39.12.23,42.636,0a1.708,1.708,0,0,1,1.2,2.89c-2.54,2.064-5.825,2.858-8.877,3.973-3.681,1.346-7.372,2.65-11.1,3.864q-11.19,3.646-22.608,6.405a1.019,1.019,0,0,1-.541-1.964" transform="translate(137.783 51.867)" fill="#1f3890"/>
    </g>
  </g>
</svg>
