<svg xmlns="http://www.w3.org/2000/svg" xmlns:xlink="http://www.w3.org/1999/xlink" width="84.895" height="130.501" viewBox="0 0 84.895 130.501">
  <defs>
    <clipPath id="clip-path">
      <rect id="Rectangle_97" data-name="Rectangle 97" width="120.183" height="55.687" transform="translate(0 0)" fill="#f6c452"/>
    </clipPath>
  </defs>
  <g id="Group_1026" data-name="Group 1026" transform="matrix(-0.259, -0.966, 0.966, -0.259, 31.106, 130.501)">
    <g id="Group_15" data-name="Group 15" transform="translate(0 0)" clip-path="url(#clip-path)">
      <path id="Path_1" data-name="Path 1" d="M.551,51.785c11.194,4.086,23.993,5.881,35.185.783,9.134-4.161,16.2-12.812,16.8-23.015l-2.376.984a37.267,37.267,0,0,0,38.783,5.1,37.95,37.95,0,0,0,14.714-12.187c4.685-6.453,6.181-14.128,8.433-21.616.551-1.833-2.314-2.617-2.863-.789-1.989,6.623-3.266,13.484-7.08,19.379A34.976,34.976,0,0,1,88.788,32.431c-11.78,6.053-26.306,4.207-36.658-3.862a1.413,1.413,0,0,0-2.376.984c-.493,9.556-7.615,17.524-16.16,21.175-10.33,4.414-22.227,2.823-32.614-.5-1-.319-1.388,1.2-.428,1.552" transform="translate(0.001 0)" fill="#f6c452"/>
      <path id="Path_2" data-name="Path 2" d="M17.738.647c-5.865,1.938-11.5,5.277-17,8.069C-.793,9.5.279,11.927,1.9,11.47A61.9,61.9,0,0,0,20.341,2.775l-2.034-.533q2.16,4.23,4.321,8.46c1.285,2.516,2.36,5.616,4.308,7.679a1.268,1.268,0,0,0,2.1-1.223c-.547-2.779-2.5-5.485-3.792-7.987L20.874.741A1.5,1.5,0,0,0,18.84.208,58.907,58.907,0,0,1,1.1,8.564l1.161,2.753C7.618,8.458,13.5,5.793,18.376,2.161c.692-.516.329-1.834-.638-1.514" transform="translate(90.513 0.851)" fill="#f6c452"/>
      <path id="Path_3" data-name="Path 3" d="M.467,1.319Q7.544,3.913,14.611,6.535c2.275.85,4.551,1.7,6.819,2.564,2.161.824,4.386,2.08,6.706,2.23a1.127,1.127,0,0,0,.789-1.907C27.249,8.06,25.081,7.536,23.067,6.8c-2.429-.888-4.865-1.749-7.324-2.55Q8.358,1.844.824.023a.673.673,0,0,0-.357,1.3" transform="translate(90.924 10.128)" fill="#f6c452"/>
    </g>
  </g>
</svg>
