<svg xmlns="http://www.w3.org/2000/svg" xmlns:xlink="http://www.w3.org/1999/xlink" width="242.81" height="222.442" viewBox="0 0 242.81 222.442">
  <defs>
    <clipPath id="clip-path">
      <rect id="Rectangle_286" data-name="Rectangle 286" width="197.764" height="162.353" fill="#e1327a"/>
    </clipPath>
  </defs>
  <g id="Group_1113" data-name="Group 1113" transform="translate(58.182 0) rotate(21)">
    <g id="Group_995" data-name="Group 995" transform="translate(0 0)" clip-path="url(#clip-path)">
      <path id="Path_1432" data-name="Path 1432" d="M33.264,68.2h0A14.078,14.078,0,0,1,19.185,54.124V37.682a14.079,14.079,0,0,1,28.157,0V54.124A14.079,14.079,0,0,1,33.264,68.2" transform="translate(37.086 45.627)" fill="#e1327a"/>
      <path id="Path_1433" data-name="Path 1433" d="M51.523,68.2h0A14.078,14.078,0,0,1,37.444,54.124V37.682a14.079,14.079,0,0,1,28.157,0V54.124A14.078,14.078,0,0,1,51.523,68.2" transform="translate(72.381 45.627)" fill="#e1327a"/>
      <path id="Path_1434" data-name="Path 1434" d="M83.746,85.394h0c-42.306,0-73.4-31.812-74.708-33.167A7.333,7.333,0,0,1,19.6,42.053c.279.285,28.192,28.676,64.146,28.676h.111c20.921-.035,40.793-9.679,59.069-28.668a7.332,7.332,0,1,1,10.568,10.166C132.317,74.234,108.85,85.394,83.746,85.394" transform="translate(13.514 76.96)" fill="#e1327a"/>
      <path id="Path_1435" data-name="Path 1435" d="M21.209,45.15a7.318,7.318,0,0,1-4.948-1.921L2.382,30.532a7.334,7.334,0,0,1,9.9-10.823l13.879,12.7A7.331,7.331,0,0,1,21.209,45.15" transform="translate(0 34.387)" fill="#e1327a"/>
      <path id="Path_1436" data-name="Path 1436" d="M28.641,34.238a7.319,7.319,0,0,1-6.063-3.2L13.606,17.88A7.333,7.333,0,1,1,25.723,9.618l8.969,13.158a7.333,7.333,0,0,1-6.051,11.462" transform="translate(23.84 12.402)" fill="#e1327a"/>
      <path id="Path_1437" data-name="Path 1437" d="M37.147,36.255a7.332,7.332,0,0,1-7.333-7.333V7.333a7.333,7.333,0,1,1,14.665,0v21.59a7.332,7.332,0,0,1-7.333,7.333" transform="translate(57.632 0.001)" fill="#e1327a"/>
      <path id="Path_1438" data-name="Path 1438" d="M55.265,33.979A7.333,7.333,0,0,1,49.953,21.59L61,10A7.333,7.333,0,1,1,71.617,20.108L60.577,31.7a7.317,7.317,0,0,1-5.312,2.276" transform="translate(92.654 14.92)" fill="#e1327a"/>
      <path id="Path_1439" data-name="Path 1439" d="M65.624,45.033a7.333,7.333,0,0,1-4.455-13.161l12.143-9.266a7.331,7.331,0,1,1,8.9,11.656l-12.14,9.266a7.3,7.3,0,0,1-4.444,1.5" transform="translate(112.67 40.795)" fill="#e1327a"/>
    </g>
  </g>
</svg>
